<svg xmlns="http://www.w3.org/2000/svg"
     fill="currentColor"
     width="100%"
     height="100%"
     viewBox="0 0 47 47">
    <path
            d="M16.1613 23.8981C16.1613 19.6805 19.5784 16.2606 23.7948 16.2606C28.0112 16.2606 31.4301 19.6805 31.4301 23.8981C31.4301 28.1157 28.0112 31.5356 23.7948 31.5356C19.5784 31.5356 16.1613 28.1157 16.1613 23.8981ZM12.0338 23.8981C12.0338 30.3956 17.2992 35.6625 23.7948 35.6625C30.2904 35.6625 35.5558 30.3956 35.5558 23.8981C35.5558 17.4006 30.2904 12.1337 23.7948 12.1337C17.2992 12.1337 12.0338 17.4006 12.0338 23.8981ZM33.2729 11.6672C33.2727 12.211 33.4337 12.7426 33.7355 13.1948C34.0374 13.6471 34.4665 13.9996 34.9686 14.2079C35.4707 14.4162 36.0234 14.4709 36.5566 14.365C37.0898 14.2591 37.5796 13.9975 37.9641 13.6131C38.3487 13.2288 38.6106 12.739 38.7169 12.2058C38.8232 11.6725 38.769 11.1197 38.5611 10.6172C38.3533 10.1148 38.0012 9.68525 37.5493 9.38297C37.0975 9.0807 36.5661 8.91924 36.0225 8.91902H36.0214C35.2928 8.91936 34.594 9.20898 34.0787 9.72426C33.5634 10.2395 33.2736 10.9384 33.2729 11.6672ZM14.5415 42.5469C12.3085 42.4452 11.0947 42.0731 10.2881 41.7588C9.21877 41.3424 8.45579 40.8464 7.65359 40.0451C6.85139 39.2438 6.35483 38.4813 5.94036 37.4116C5.62593 36.6052 5.25396 35.3907 5.15245 33.157C5.04141 30.742 5.01924 30.0166 5.01924 23.8983C5.01924 17.78 5.04325 17.0566 5.15245 14.6396C5.25415 12.4059 5.62886 11.1938 5.94036 10.3849C6.35666 9.31529 6.85249 8.55208 7.65359 7.74966C8.45469 6.94723 9.21694 6.45052 10.2881 6.03593C11.0943 5.72141 12.3085 5.34934 14.5415 5.2478C16.9558 5.13672 17.681 5.11455 23.7948 5.11455C29.9086 5.11455 30.6346 5.13856 33.0508 5.2478C35.2839 5.34952 36.4956 5.72434 37.3042 6.03593C38.3736 6.45052 39.1366 6.94833 39.9388 7.74966C40.741 8.55098 41.2357 9.31529 41.652 10.3849C41.9664 11.1914 42.3384 12.4059 42.4399 14.6396C42.551 17.0566 42.5731 17.78 42.5731 23.8983C42.5731 30.0166 42.551 30.74 42.4399 33.157C42.3382 35.3907 41.9644 36.6048 41.652 37.4116C41.2357 38.4813 40.7399 39.2445 39.9388 40.0451C39.1377 40.8457 38.3736 41.3424 37.3042 41.7588C36.498 42.0733 35.2839 42.4454 33.0508 42.5469C30.6366 42.658 29.9113 42.6802 23.7948 42.6802C17.6783 42.6802 16.9551 42.658 14.5415 42.5469ZM14.3519 1.12605C11.9136 1.23712 10.2474 1.62386 8.79239 2.19021C7.28547 2.77508 6.0098 3.55973 4.73505 4.83284C3.46029 6.10594 2.67788 7.384 2.09319 8.89135C1.52699 10.3477 1.14037 12.0134 1.02933 14.4524C0.916461 16.8953 0.890625 17.6763 0.890625 23.8981C0.890625 30.1199 0.916461 30.9009 1.02933 33.3438C1.14037 35.7829 1.52699 37.4485 2.09319 38.9049C2.67788 40.4113 3.46047 41.6908 4.73505 42.9634C6.00962 44.2359 7.28547 45.0195 8.79239 45.606C10.2502 46.1724 11.9136 46.5591 14.3519 46.6702C16.7953 46.7812 17.5748 46.8089 23.7948 46.8089C30.0149 46.8089 30.7956 46.7831 33.2377 46.6702C35.6762 46.5591 37.3413 46.1724 38.7972 45.606C40.3032 45.0195 41.5798 44.2365 42.8546 42.9634C44.1293 41.6903 44.9101 40.4113 45.4964 38.9049C46.0626 37.4485 46.4511 35.7828 46.5603 33.3438C46.6713 30.8991 46.6972 30.1199 46.6972 23.8981C46.6972 17.6763 46.6713 16.8953 46.5603 14.4524C46.4492 12.0133 46.0626 10.3468 45.4964 8.89135C44.9101 7.38492 44.1273 6.10796 42.8546 4.83284C41.5818 3.55771 40.3032 2.77508 38.7991 2.19021C37.3413 1.62386 35.676 1.23529 33.2396 1.12605C30.7974 1.01498 30.0167 0.987305 23.7966 0.987305C17.5766 0.987305 16.7953 1.01315 14.3519 1.12605Z"
            fill="currentColor"/>
    <path
            d="M16.1613 23.8981C16.1613 19.6805 19.5784 16.2606 23.7948 16.2606C28.0112 16.2606 31.4301 19.6805 31.4301 23.8981C31.4301 28.1157 28.0112 31.5356 23.7948 31.5356C19.5784 31.5356 16.1613 28.1157 16.1613 23.8981ZM12.0338 23.8981C12.0338 30.3956 17.2992 35.6625 23.7948 35.6625C30.2904 35.6625 35.5558 30.3956 35.5558 23.8981C35.5558 17.4006 30.2904 12.1337 23.7948 12.1337C17.2992 12.1337 12.0338 17.4006 12.0338 23.8981ZM33.2729 11.6672C33.2727 12.211 33.4337 12.7426 33.7355 13.1948C34.0374 13.6471 34.4665 13.9996 34.9686 14.2079C35.4707 14.4162 36.0234 14.4709 36.5566 14.365C37.0898 14.2591 37.5796 13.9975 37.9641 13.6131C38.3487 13.2288 38.6106 12.739 38.7169 12.2058C38.8232 11.6725 38.769 11.1197 38.5611 10.6172C38.3533 10.1148 38.0012 9.68525 37.5493 9.38297C37.0975 9.0807 36.5661 8.91924 36.0225 8.91902H36.0214C35.2928 8.91936 34.594 9.20898 34.0787 9.72426C33.5634 10.2395 33.2736 10.9384 33.2729 11.6672ZM14.5415 42.5469C12.3085 42.4452 11.0947 42.0731 10.2881 41.7588C9.21877 41.3424 8.45579 40.8464 7.65359 40.0451C6.85139 39.2438 6.35483 38.4813 5.94036 37.4116C5.62593 36.6052 5.25396 35.3907 5.15245 33.157C5.04141 30.742 5.01924 30.0166 5.01924 23.8983C5.01924 17.78 5.04325 17.0566 5.15245 14.6396C5.25415 12.4059 5.62886 11.1938 5.94036 10.3849C6.35666 9.31529 6.85249 8.55208 7.65359 7.74966C8.45469 6.94723 9.21694 6.45052 10.2881 6.03593C11.0943 5.72141 12.3085 5.34934 14.5415 5.2478C16.9558 5.13672 17.681 5.11455 23.7948 5.11455C29.9086 5.11455 30.6346 5.13856 33.0508 5.2478C35.2839 5.34952 36.4956 5.72434 37.3042 6.03593C38.3736 6.45052 39.1366 6.94833 39.9388 7.74966C40.741 8.55098 41.2357 9.31529 41.652 10.3849C41.9664 11.1914 42.3384 12.4059 42.4399 14.6396C42.551 17.0566 42.5731 17.78 42.5731 23.8983C42.5731 30.0166 42.551 30.74 42.4399 33.157C42.3382 35.3907 41.9644 36.6048 41.652 37.4116C41.2357 38.4813 40.7399 39.2445 39.9388 40.0451C39.1377 40.8457 38.3736 41.3424 37.3042 41.7588C36.498 42.0733 35.2839 42.4454 33.0508 42.5469C30.6366 42.658 29.9113 42.6802 23.7948 42.6802C17.6783 42.6802 16.9551 42.658 14.5415 42.5469ZM14.3519 1.12605C11.9136 1.23712 10.2474 1.62386 8.79239 2.19021C7.28547 2.77508 6.0098 3.55973 4.73505 4.83284C3.46029 6.10594 2.67788 7.384 2.09319 8.89135C1.52699 10.3477 1.14037 12.0134 1.02933 14.4524C0.916461 16.8953 0.890625 17.6763 0.890625 23.8981C0.890625 30.1199 0.916461 30.9009 1.02933 33.3438C1.14037 35.7829 1.52699 37.4485 2.09319 38.9049C2.67788 40.4113 3.46047 41.6908 4.73505 42.9634C6.00962 44.2359 7.28547 45.0195 8.79239 45.606C10.2502 46.1724 11.9136 46.5591 14.3519 46.6702C16.7953 46.7812 17.5748 46.8089 23.7948 46.8089C30.0149 46.8089 30.7956 46.7831 33.2377 46.6702C35.6762 46.5591 37.3413 46.1724 38.7972 45.606C40.3032 45.0195 41.5798 44.2365 42.8546 42.9634C44.1293 41.6903 44.9101 40.4113 45.4964 38.9049C46.0626 37.4485 46.4511 35.7828 46.5603 33.3438C46.6713 30.8991 46.6972 30.1199 46.6972 23.8981C46.6972 17.6763 46.6713 16.8953 46.5603 14.4524C46.4492 12.0133 46.0626 10.3468 45.4964 8.89135C44.9101 7.38492 44.1273 6.10796 42.8546 4.83284C41.5818 3.55771 40.3032 2.77508 38.7991 2.19021C37.3413 1.62386 35.676 1.23529 33.2396 1.12605C30.7974 1.01498 30.0167 0.987305 23.7966 0.987305C17.5766 0.987305 16.7953 1.01315 14.3519 1.12605Z"
            fill="currentColor"/>
</svg>
