<svg xmlns="http://www.w3.org/2000/svg"
     fill="currentColor"
     width="100%"
     height="100%"
     viewBox="0 0 24 24"
>
    <path
            d="M14.8122 9.78879C14.3493 9.81887 13.938 9.86168 13.8908 9.88742C13.7494 9.96032 13.6638 10.0804 13.6467 10.2175C13.634 10.3589 13.6768 10.376 14.1393 10.4318L14.3407 10.4576V12.2872C14.3407 13.3755 14.3236 14.0955 14.3022 14.074C14.2808 14.0483 13.6724 13.1229 12.9481 12.0173C12.2241 10.9077 11.6241 9.99473 11.6154 9.98633C11.6068 9.97766 11.1355 10.0034 10.57 10.0422C9.87575 10.0893 9.49449 10.1321 9.41726 10.1749C9.29288 10.2392 9.15576 10.4662 9.15576 10.6164C9.15576 10.7063 9.31862 10.7535 9.66141 10.7535H9.84134V16.0153L9.55004 16.1053C9.32296 16.1739 9.24573 16.2167 9.20725 16.3023C9.13869 16.4481 9.14303 16.5809 9.21158 16.5809C9.23733 16.5809 9.72157 16.5508 10.2784 16.5167C11.3797 16.4524 11.5038 16.4224 11.6195 16.1953C11.6539 16.1267 11.6837 16.0538 11.6837 16.0324C11.6837 16.0153 11.5339 15.9639 11.3537 15.921C11.1694 15.8782 10.9851 15.8354 10.9467 15.8267C10.8738 15.8053 10.8694 15.6726 10.8694 13.8299V11.8545L12.172 13.8985C13.5388 16.0408 13.7104 16.2852 13.9204 16.3923C14.1819 16.5294 14.846 16.4351 15.1802 16.2167L15.2831 16.1525L15.2918 13.2302L15.3045 10.3036L15.5316 10.2608C15.8015 10.2093 15.9259 10.0852 15.9259 9.87089C15.9259 9.73378 15.9172 9.72511 15.7888 9.72944C15.7121 9.73297 15.2707 9.75871 14.8122 9.78879Z"
            fill="currentColor"/>
    <path
            d="M9.7004 5.43954C7.55804 5.59806 5.73679 5.74385 5.65116 5.76092C5.41107 5.80374 5.19267 5.9666 5.08997 6.18094L5 6.36954L5.02141 15.3595L5.15852 15.6381C5.23575 15.7923 5.75847 16.5123 6.32834 17.2534C7.45534 18.7145 7.53663 18.7961 7.96505 18.8389C8.08943 18.8516 9.02349 18.8088 10.0348 18.7489C11.0504 18.6847 12.6785 18.5861 13.6556 18.5305C17.829 18.2772 17.6146 18.2986 17.8544 18.0929C18.1544 17.8444 18.133 18.2514 18.1457 12.7882C18.1544 8.15611 18.1501 7.85207 18.0815 7.71062C18.0002 7.55209 17.8544 7.44072 15.9519 6.10371C14.6794 5.21246 14.5894 5.16531 14.0193 5.15664C13.7838 5.14824 11.8384 5.27668 9.7004 5.43954ZM14.5165 6.02648C14.6964 6.10778 16.012 7.02477 16.2047 7.20063C16.2562 7.25212 16.2733 7.29493 16.2475 7.32068C16.1876 7.37216 8.04607 7.8564 7.81059 7.82199C7.70356 7.80492 7.54503 7.74069 7.45507 7.68054C7.0822 7.42771 6.15681 6.66924 6.15681 6.61369C6.15681 6.46791 6.12673 6.46791 9.75622 6.20668C10.4505 6.15953 11.5902 6.0739 12.2845 6.01808C13.7881 5.89804 14.2382 5.90237 14.5165 6.02648ZM17.1046 8.37045C17.1645 8.43034 17.216 8.54604 17.2331 8.65742C17.2458 8.76039 17.2545 10.68 17.2458 12.9167C17.2331 16.7559 17.2287 16.996 17.1558 17.1074C17.113 17.1759 17.0274 17.2488 16.9629 17.2702C16.7832 17.3431 8.25202 17.8273 8.07642 17.7759C7.99513 17.7544 7.88349 17.6859 7.8236 17.626L7.72063 17.5146L7.70789 13.3754C7.69922 10.4703 7.70789 9.18474 7.74231 9.06903C7.76805 8.9834 7.83227 8.88043 7.88809 8.84629C7.96532 8.7948 8.47097 8.75199 10.2107 8.64929C11.432 8.58073 13.3215 8.46502 14.4057 8.4008C16.9846 8.24201 16.9762 8.24201 17.1046 8.37045Z"
            fill="currentColor"/>
</svg>
