<svg xmlns="http://www.w3.org/2000/svg"
     fill="currentColor"
     width="100%"
     height="100%"
     viewBox="0 0 89 38">
  <path
          fill="currentColor"
          fill-rule="evenodd"
          d="M33.951 12.1543c-1.3047.0229-2.6223.0345-3.951.0345-1.2602 0-2.5104-.0104-3.749-.031V18.5h7.7v-6.3457Zm-.1448-4.1561c-1.257.01265-2.5263.01909-3.8062.01909-5.038 0-9.9106-.0997-14.524-.28584V-.75h7.675v6.975c1.075-1.65 2.8-2.675 4.95-2.675 3.2508 0 5.1827 1.5329 5.7052 4.4482Zm.4691 4.1502c.0828 1.8067.6568 3.4111 2.0143 4.6766 1.475 1.35 3.95 2.15 7.825 2.15 6.3 0 9.325-1.775 10.225-5.425h-8.175c-.2249.325-.575.525-1.65.525-1.55 0-2.3-.5-2.575-1.475h12.475v-1.3c0-.1756-.0043-.3493-.0131-.5212-6.128.754-12.9289 1.2329-20.1262 1.3696ZM.299805 10.0321V10.1h.428624c-.143343-.0225-.286219-.0451-.428624-.0679Zm2.749995.4119v.806c0 3.375.67501 5.5 2.72501 6.5 1 .5 2.42499.75 4.29999.75h4.825v-6.05h-2.775c-1.3371 0-1.7254-.2791-1.8068-1.1581-2.52054-.2394-4.94876-.5233-7.2682-.8479Zm11.875-2.73525C9.65638 7.48731 4.73409 7.1528.299805 6.7252V4.275C1.3748 4.2 1.9498 4.1 2.5498 3.875c.8-.325 1.22501-.725 1.55-1.55.30001-.775.4-1.6.475-2.549999h5.725V3.875h4.625v3.83375Zm.5512 4.00105V18.5h7.725v-6.15c0-.0912.001-.1791.003-.2639-2.64-.0803-5.2208-.207-7.728-.3763Zm37.9017-4.46203c-5.609.39227-11.7851.64778-18.3087.73558.091-.18943.1896-.3755.2956-.55835 1.475-2.45 4.5001-3.875 9.3-3.875 3.5751 0 6 .825 7.55 2.275.4672.43702.8526.91264 1.1631 1.42277ZM59.0869 18.85c-1.15 0-2.025-.075-2.625-.275-1.25-.325-1.625-1.325-1.625-3.4 0-1.05.125-1.85.4-2.375.575-1.075 1.75-1.35 3.85-1.35 1.05 0 1.875.1 2.475.275 1.275.375 1.775 1.35 1.775 3.45 0 1-.125 1.8-.4 2.325-.1562.3125-.37.5585-.6499.75h7.3776V32.7h7.6192c.375.725 1.175.875 2.825.875 1.075 0 1.4-.275 1.4-.5 0-.375-.8-.55-3.675-.725-1.95-.125-3.5-.325-4.65-.625-2.3-.6-3.25-1.75-3.25-3.8 0-3.475 3-5.375 8.85-5.375 5.75 0 8.725 1.525 10 5.1h-7.575c-.375-.675-1.35-.875-2.65-.875-1.15 0-1.425.2-1.425.5 0 .425 1.575.625 3.55.725 2 .1 3.575.325 4.75.65 2.375.625 3.35 1.8 3.35 3.75 0 1.1-.325 2.075-.925 2.925-1.25 1.675-3.95 2.65-8.675 2.65-1.7 0-3.25-.15-4.625-.475-2.3971-.5183-4.1413-1.6708-4.8942-3.7476V37.5h-7.775V18.4672c-.6532.2837-1.5669.3828-2.8027.3828Zm-58.0371.65v18h9.975c4.225 0 7.45-1.35 9.225-4.025.9-1.35 1.325-3 1.325-4.975 0-3.975-1.775-6.625-5-7.975-1.575-.7-3.425-1.025-5.6-1.025h-9.925Zm7.8 11.45v-5h1.675c2.175 0 2.925.75 2.925 2.525 0 1.55-.75 2.475-2.925 2.475h-1.675Zm32.6229 2.1935c-1.0771 3.2491-4.1059 4.8315-10.0543 4.8315-3.875 0-6.35-.8-7.825-2.15-1.475-1.375-2.025-3.15-2.025-5.15 0-1.6.375-3 1.1-4.25 1.475-2.45 4.5-3.875 9.3-3.875 3.575 0 6 .825 7.55 2.275 1.55 1.45 2.2 3.325 2.2 5.475v1.3h-12.475c.275.975 1.025 1.475 2.575 1.475 1.075 0 1.425-.2 1.65-.525h8.1342c.3101-1.05 1.0084-1.8333 2.113-2.35.475-.225.95-.425 1.45-.55.975-.3 2.225-.475 4.025-.675 1.25-.125 2.175-.225 2.8-.3 1.25-.175 1.55-.35 1.55-.675 0-.375-.225-.575-1.475-.575-1.575 0-2.25.475-2.25 1h-7.925c.425-3.975 4.075-5.875 10-5.875 6.425 0 9.2 2.075 9.2 6.725V37.5h-6.775l-.775-2.4c-1.05 1.75-3.175 2.875-6.6 2.875-3.85 0-5.525-1.4-5.525-4.025 0-.2821.019-.5509.0571-.8065ZM31.6934 27.6c-1.275 0-2 .425-2.325 1.2h4.625c-.275-.9-.95-1.2-2.3-1.2Zm20.1472 5.65c-.5.2-1 .3-1.5.3-.6 0-.85-.275-.85-.575 0-.275.15-.45.35-.575.2-.125.55-.275 1.525-.475 1.05-.275 1.75-.475 2.175-.8v.225c0 .8-.725 1.5-1.7 1.9Z"
          clip-rule="evenodd"/>
</svg>
