<svg xmlns="http://www.w3.org/2000/svg"
     fill="currentColor"
     width="100%"
     height="100%"
     viewBox="0 0 53 18"
>
     <path d="M30.808 5.686v2.959h-1.21V5.88c0-.475-.182-.658-.654-.658h-2.35v3.422h-1.21V.122h2.942c1.453 0 2.603.974 2.603 2.289 0 1.023-.484 1.765-1.356 2.106h.06c.824 0 1.175.378 1.175 1.17zm-1.09-3.056c0-.913-.605-1.412-1.67-1.412h-1.453v2.91h1.453c.98 0 1.67-.585 1.67-1.498zM32.063 5.881h1.21c.061 1.193.763 1.79 2.107 1.79h.06c1.09 0 1.696-.585 1.696-1.34 0-.645-.363-1.047-1.223-1.23L34.57 4.81c-1.416-.292-2.082-1.047-2.082-2.313C32.487 1.145 33.625 0 35.44 0c1.889 0 3.015 1.096 3.039 2.703h-1.21c-.073-.998-.764-1.607-1.817-1.607h-.048c-1.017 0-1.708.609-1.708 1.376 0 .67.364 1.022 1.223 1.18l1.223.256c1.441.293 2.204 1.048 2.204 2.35 0 1.462-1.15 2.509-3.027 2.509-2.167 0-3.209-1.145-3.257-2.886zM39.48 4.383C39.48 1.741 40.63 0 42.798 0c1.78 0 2.724 1.193 2.82 2.825h-1.21c-.06-1.035-.642-1.73-1.574-1.73h-.073c-1.331 0-2.07 1.267-2.07 3.288 0 2.046.726 3.288 2.07 3.288h.073c.969 0 1.477-.658 1.574-1.73h1.21c-.096 1.669-.98 2.826-2.82 2.826-2.168 0-3.318-1.705-3.318-4.384zM25.3 17.878V9.355h1.21v7.427h4.54v1.096H25.3zM37.45 17.878l-.653-2.191h-3.003l-.654 2.191h-1.21l2.64-8.523h1.525l2.603 8.523h-1.247zm-3.329-3.287h2.35l-1.175-3.97-1.175 3.97zM39.977 17.878V9.355h3.027c1.513 0 2.433.901 2.433 2.216 0 1.01-.557 1.705-1.392 1.985.847.17 1.574.877 1.574 2.009 0 1.364-1.017 2.313-2.543 2.313h-3.1zm1.21-4.858h1.623c.872 0 1.416-.463 1.416-1.29 0-.84-.484-1.279-1.416-1.279h-1.623v2.57zm0 3.762h1.671c1.017 0 1.55-.462 1.55-1.351 0-.865-.581-1.327-1.538-1.327h-1.683v2.678zM46.583 15.114h1.21c.061 1.194.763 1.79 2.107 1.79h.06c1.09 0 1.696-.584 1.696-1.34 0-.645-.363-1.046-1.223-1.229l-1.344-.292c-1.416-.292-2.082-1.047-2.082-2.314 0-1.351 1.138-2.496 2.954-2.496 1.889 0 3.015 1.096 3.039 2.703h-1.21c-.073-.998-.764-1.607-1.817-1.607h-.048c-1.017 0-1.708.609-1.708 1.376 0 .67.364 1.023 1.223 1.181l1.223.256c1.441.292 2.204 1.047 2.204 2.35 0 1.46-1.15 2.508-3.027 2.508-2.168 0-3.209-1.145-3.257-2.886zM6.306 0 0 9h7.323l6.305 9h8.34v-1.636h-2.164L14.645 9H7.323l5.159-7.364h2.163V0h-8.34z"
     fill="currentColor"/>
</svg>
