<svg width="100%"
     height="100%"
     fill="currentColor"
     viewBox="0 0 122 20"
     xmlns="http://www.w3.org/2000/svg">
    <path fill-rule="evenodd"
          clip-rule="evenodd"
          d="M7.03559 3.4376C7.03559 5.33599 5.55799 6.87497 3.73557 6.87497C1.91294 6.87497 0.435547 5.33599 0.435547 3.4376C0.435547 1.53898 1.91294 0 3.73557 0C5.55799 0 7.03559 1.53898 7.03559 3.4376ZM14.9514 14.4957C13.4517 14.4957 12.7965 13.1698 12.7965 11.6985C12.7965 10.227 13.4517 8.91923 14.9514 8.91923C16.3996 8.91923 17.0719 10.1545 17.0719 11.6985C17.0719 13.2424 16.3996 14.4957 14.9514 14.4957ZM12.7965 7.88392V7.02986H10.4692V20H12.8828V15.5131H13.3311C13.7965 16.1671 14.5034 16.6028 15.7271 16.6028C18.0547 16.6028 19.4853 14.5504 19.4853 11.6985C19.4853 8.88285 18.0718 6.79386 15.7271 6.79386C14.486 6.79386 13.7274 7.24811 13.2448 7.88392H12.7965ZM23.2985 16.3666H20.8849V3.16066H23.2985V16.3666ZM30.5199 12.6249V12.0436H28.6237C27.5895 12.0436 26.9686 12.4431 26.9686 13.2969C26.9686 14.1506 27.5547 14.5866 28.5375 14.5866C29.7097 14.5866 30.5199 13.7875 30.5199 12.6249ZM30.6234 15.5675H30.1754C29.6408 16.2216 28.8649 16.6028 27.6927 16.6028C25.693 16.6028 24.5552 15.1498 24.5552 13.4968C24.5552 12.0436 25.5378 10.3905 28.1583 10.3905H30.5199V10.1545C30.5199 9.19148 30.0026 8.70129 28.9512 8.70129C27.9858 8.70129 27.5203 9.0646 27.4515 9.70041H25.0552C25.1067 7.90198 26.6927 6.79386 28.8306 6.79386C31.2268 6.79386 32.8473 7.79279 32.8473 10.2998V16.367H30.6234V15.5675ZM37.9869 8.75554C38.7626 8.75554 39.2972 8.95542 39.4178 9.59123H41.8142C41.6243 7.92004 40.2797 6.79386 38.056 6.79386C35.4355 6.79386 34.2805 8.11973 34.2805 9.71854C34.2805 11.3168 35.263 12.0255 36.6595 12.298L38.3835 12.5885C39.2626 12.752 39.6591 12.988 39.6591 13.624C39.6591 14.296 39.0903 14.6411 38.1249 14.6411C37.1077 14.6411 36.4872 14.2777 36.3664 13.424H33.9701C34.1596 15.3678 35.4527 16.6028 38.142 16.6028C40.7451 16.6028 42.0725 15.1317 42.0725 13.5693C42.0725 11.6985 40.9175 10.8445 39.2454 10.5721L37.6423 10.3179C37.0387 10.1908 36.694 10.0635 36.694 9.55504C36.694 8.99179 37.2457 8.75554 37.9869 8.75554ZM56.5592 10.4814V16.367H54.1456V10.9718C54.1456 9.7366 53.7664 9.04654 52.801 9.04654C51.6976 9.04654 51.1805 9.93629 51.1805 11.1534V16.367H48.7671V10.9718C48.7671 9.75473 48.3877 9.04654 47.4223 9.04654C46.2672 9.04654 45.7846 10.0997 45.7846 11.3535V16.367H43.371V7.02986H45.6984V7.88392H46.1466C46.5777 7.15717 47.3188 6.79386 48.3531 6.79386C49.4048 6.79386 50.146 7.15717 50.6116 7.88392H51.0599C51.5768 7.15717 52.3873 6.79386 53.4733 6.79386C55.5936 6.79386 56.5592 8.22892 56.5592 10.4814ZM63.7114 12.0436V12.6249C63.7114 13.7875 62.9008 14.5866 61.729 14.5866C60.7462 14.5866 60.1599 14.1506 60.1599 13.2969C60.1599 12.4431 60.781 12.0436 61.8148 12.0436H63.7114ZM63.3664 15.5675H63.8146V16.367H66.0388V10.2998C66.0388 7.79279 64.4182 6.79386 62.0218 6.79386C59.884 6.79386 58.298 7.90198 58.2465 9.70041H60.643C60.7114 9.0646 61.177 8.70129 62.1424 8.70129C63.1936 8.70129 63.7114 9.19148 63.7114 10.1545V10.3905H61.3498C58.7291 10.3905 57.7465 12.0436 57.7465 13.4968C57.7465 15.1498 58.8842 16.6028 60.8842 16.6028C62.056 16.6028 62.8318 16.2216 63.3664 15.5675ZM68.949 8.34328V16.3669H70.4748V8.34328H72.2877V7.12136H70.4748V6.31814C70.4748 5.7086 70.617 5.25288 70.9014 4.95096C71.1912 4.64334 71.6615 4.48953 72.3123 4.48953C72.9303 4.48953 73.5811 4.63195 74.2647 4.91678L74.519 3.58378C73.5838 3.23628 72.81 3.06254 72.1975 3.06254C71.1639 3.06254 70.3627 3.35022 69.7939 3.92557C69.2307 4.50093 68.949 5.30415 68.949 6.33523V7.12136H67.5463V8.34328H68.949ZM73.7479 16.3669H75.2737V7.12136H73.7479V16.3669ZM79.2276 8.28347L79.1784 7.12136H77.7428V16.3669H79.2604V9.77883C79.4682 9.33446 79.7581 8.97558 80.13 8.70217C80.5018 8.42873 80.9338 8.29201 81.426 8.29201C82.0331 8.29201 82.4788 8.45152 82.7632 8.77052C83.053 9.08952 83.2007 9.58227 83.2061 10.2488V16.3669H84.7237V10.2573C84.7073 8.05276 83.7612 6.95046 81.8855 6.95046C80.7916 6.95046 79.9057 7.3948 79.2276 8.28347ZM92.2788 15.3928C92.3336 15.8599 92.4047 16.1846 92.4921 16.3669H94.0835V16.2302C93.8758 15.7289 93.7718 15.0539 93.7718 14.2051V9.94971C93.75 9.01546 93.4492 8.28347 92.8695 7.75368C92.2898 7.2182 91.4886 6.95046 90.4659 6.95046C89.8206 6.95046 89.2273 7.07578 88.6858 7.32644C88.1499 7.57709 87.7234 7.91888 87.4061 8.35182C87.0944 8.77907 86.9386 9.2234 86.9386 9.68483H88.4644C88.4644 9.2804 88.6476 8.93571 89.014 8.6509C89.3804 8.36607 89.8343 8.22365 90.3757 8.22365C90.9937 8.22365 91.4613 8.38885 91.7784 8.71925C92.0957 9.04396 92.2542 9.48258 92.2542 10.0351V10.7615H90.7777C89.5035 10.7615 88.5136 11.0292 87.8082 11.5647C87.1081 12.0945 86.7581 12.8408 86.7581 13.8034C86.7581 14.5953 87.037 15.2504 87.5948 15.7688C88.1581 16.2815 88.8773 16.5378 89.7523 16.5378C90.7312 16.5378 91.5734 16.1562 92.2788 15.3928ZM91.3273 14.7776C90.9008 15.0339 90.4496 15.1621 89.9737 15.1621C89.4761 15.1621 89.0687 15.0226 88.7515 14.7434C88.4343 14.4643 88.2757 14.0769 88.2757 13.5813C88.2757 12.4477 89.2054 11.8809 91.0648 11.8809H92.2542V13.7778C92.0628 14.188 91.7538 14.5213 91.3273 14.7776ZM97.6356 8.28347L97.5863 7.12136H96.1508V16.3669H97.6684V9.77883C97.8762 9.33446 98.166 8.97558 98.5379 8.70217C98.9098 8.42873 99.3418 8.29201 99.834 8.29201C100.441 8.29201 100.887 8.45152 101.171 8.77052C101.461 9.08952 101.609 9.58227 101.614 10.2488V16.3669H103.132V10.2573C103.115 8.05276 102.169 6.95046 100.293 6.95046C99.1996 6.95046 98.3137 7.3948 97.6356 8.28347ZM110.4 14.7349C109.995 15.0766 109.522 15.2476 108.981 15.2476C108.199 15.2476 107.597 14.9599 107.176 14.3845C106.755 13.8092 106.544 12.9889 106.544 11.9236V11.6245C106.544 10.5308 106.755 9.69621 107.176 9.12083C107.602 8.53981 108.201 8.24929 108.972 8.24929C109.547 8.24929 110.028 8.44297 110.416 8.83034C110.81 9.21202 111.029 9.70189 111.072 10.3001H112.508C112.464 9.30883 112.111 8.50279 111.45 7.88186C110.793 7.26093 109.968 6.95046 108.972 6.95046C108.163 6.95046 107.46 7.14415 106.864 7.53151C106.274 7.91888 105.82 8.46291 105.502 9.16358C105.185 9.86427 105.027 10.6646 105.027 11.5647V11.8296C105.027 13.2879 105.382 14.4386 106.093 15.2817C106.809 16.1191 107.772 16.5378 108.981 16.5378C109.582 16.5378 110.151 16.3954 110.687 16.1106C111.228 15.8257 111.66 15.4441 111.983 14.9656C112.306 14.4871 112.481 13.9829 112.508 13.4531H111.072C111.029 13.9658 110.804 14.3931 110.4 14.7349ZM114.961 15.3074C115.715 16.1277 116.694 16.5378 117.897 16.5378C119.385 16.5378 120.501 15.9426 121.244 14.7519L120.317 14C120.038 14.376 119.713 14.6779 119.341 14.9057C118.969 15.1336 118.515 15.2476 117.979 15.2476C117.225 15.2476 116.601 14.9684 116.109 14.4101C115.622 13.8462 115.368 13.1085 115.346 12.197H121.359V11.5391C121.359 10.0636 121.039 8.93002 120.399 8.1382C119.76 7.34638 118.863 6.95046 117.709 6.95046C117.003 6.95046 116.347 7.15554 115.74 7.5657C115.138 7.97015 114.668 8.53412 114.329 9.25758C113.995 9.97533 113.829 10.7928 113.829 11.7099V12.0005C113.829 13.3791 114.206 14.4814 114.961 15.3074ZM116.167 8.94996C116.582 8.48285 117.096 8.24929 117.709 8.24929C118.343 8.24929 118.846 8.47145 119.218 8.91577C119.59 9.35439 119.798 9.97533 119.842 10.7786V10.8982H115.395C115.494 10.0608 115.751 9.4114 116.167 8.94996Z"
          fill="white"/>
</svg>
