<svg width="100%"
     height="100%"
     fill="currentColor"
     viewBox="0 0 93 20"
     xmlns="http://www.w3.org/2000/svg">
    <path fill-rule="evenodd"
          clip-rule="evenodd"
          d="M2.72608 5.00511H19.0629L10.9043 20L2.72608 5.00511ZM10.9043 15.0153L14.9836 7.51788H6.825L10.9043 15.0153Z"
          fill="white"/>
    <path d="M1.35323 2.49234L0 0H21.7694L20.4162 2.49234H1.35323Z"
          fill="white"/>
    <path d="M35.4767 13.6655L39.203 3.59396L42.1251 3.57353L42.1055 3.59396L36.8103 17.0771V17.0975H34.2019L28.9066 3.59396L28.887 3.57353H31.7896V3.59396L35.4767 13.6655Z"
          fill="white"/>
    <path d="M91.5868 15.5245C92.1163 14.8503 92.3712 14.0127 92.3712 13.0526C92.3712 12.501 92.2732 11.929 92.0771 11.357C91.9202 10.928 91.6652 10.5194 91.3318 10.1925C90.9788 9.86566 90.5865 9.62051 90.1551 9.43665C89.7236 9.23236 89.2529 9.06893 88.7822 8.96679C88.3312 8.86464 87.8213 8.78293 87.2329 8.70121C86.7622 8.63992 86.3111 8.55821 85.8404 8.43563C85.507 8.35392 85.1932 8.19048 84.9187 7.96577C84.801 7.88405 84.7029 7.76148 84.6441 7.61847C84.5656 7.47547 84.546 7.33247 84.546 7.16904C84.546 6.69917 84.7422 6.31102 85.154 6.00458C85.5659 5.69814 86.1934 5.53472 87.0172 5.53472C87.6251 5.53472 88.2135 5.67772 88.7626 5.96372C89.2921 6.24973 89.6648 6.57659 89.8805 6.96475L89.9197 7.04646V7.06689H89.9393L91.979 5.96372H91.9986V5.9433L91.9594 5.86158C91.1161 4.06383 89.4294 3.16495 86.9191 3.16495C86.115 3.16495 85.3305 3.30795 84.5853 3.5531C83.8596 3.79825 83.2124 4.24769 82.7221 4.86056C82.1926 5.49386 81.9376 6.24973 81.9376 7.12818C81.9376 7.86362 82.0553 8.49692 82.3299 9.00765C82.5848 9.5388 82.9967 9.96781 83.5066 10.2538C84.0165 10.5398 84.5264 10.7645 85.0756 10.9075C85.6835 11.071 86.3307 11.1936 86.9583 11.2548C88.8215 11.4591 89.7628 12.072 89.7628 13.073C89.7628 13.7063 89.5079 14.1558 88.998 14.4622C88.4684 14.7686 87.8016 14.9321 86.9975 14.9321C86.2719 14.9525 85.5462 14.7686 84.8794 14.4213C84.2911 14.0945 83.8204 13.5633 83.585 12.9096L83.5458 12.8074V12.787H83.5262L81.3885 13.9515H81.3689V13.9719L81.4081 14.0536C82.2514 16.2599 84.1342 17.3835 86.9779 17.3835C87.8801 17.404 88.7822 17.261 89.6255 16.9545C90.3904 16.6889 91.0769 16.1782 91.5868 15.5245Z"
          fill="white"/>
    <path d="M54.2846 6.24973L54.265 3.59396V3.57353H44.6747V17.0362H54.2846V14.3396H47.2439V11.6021H54.0297V9.0485H47.2439V6.24973H54.2846Z"
          fill="white"/>
    <path d="M72.6807 3.59396L75.2891 3.61439L80.5648 17.0975L80.5844 17.118H77.6818V17.0975L73.9947 7.02603L70.2684 17.0975V17.118H67.3659L67.3855 17.0975L72.6807 3.61439V3.59396Z"
          fill="white"/>
    <path d="M65.895 14.36H59.4426V3.59396H56.8538V17.0567H65.895V14.36Z"
          fill="white"/>
</svg>
