<svg width="100%"
     height="100%"
     fill="currentColor"
     viewBox="0 0 147 20"
     xmlns="http://www.w3.org/2000/svg">
    <path fill-rule="evenodd"
          clip-rule="evenodd"
          d="M76.1801 3.58144C77.1329 3.58144 77.8992 2.78317 77.8992 1.79072C77.8992 0.798271 77.1329 0 76.1801 0C75.2274 0 74.461 0.798271 74.461 1.79072C74.4817 2.78317 75.2481 3.58144 76.1801 3.58144ZM74.8546 15.5124H77.5471V5.26429H74.8546V15.5124ZM69.7179 14.3689C69.2623 15.0378 68.2474 15.7497 66.8804 15.7497C64.2706 15.7497 62.2615 13.2686 62.2615 10.3776C62.2615 7.48652 64.2706 5.02697 66.8804 5.02697C68.2474 5.02697 69.2623 5.76052 69.7179 6.40777V0.129458H72.4105V15.5124H69.7179V14.3689ZM64.9748 10.3991C64.9748 12.0173 65.969 13.1823 67.4603 13.1823C68.9516 13.1823 69.9458 12.0173 69.9458 10.3991C69.9458 8.78102 68.9516 7.61597 67.4603 7.61597C65.969 7.61597 64.9748 8.78102 64.9748 10.3991ZM39.9545 15.5124H37.0755L37.0962 3.77563H33.3681V0.949304H43.7241V3.77563H39.9545V15.5124ZM46.4167 15.5124H43.7241V5.2643H46.4167V6.904C46.8103 5.84683 47.7837 5.13485 48.8608 5.13485C49.1714 5.13485 49.4821 5.178 49.7721 5.2643V8.1122C49.3786 7.96118 48.9643 7.89645 48.5501 7.89645C47.2659 7.89645 46.4167 8.91047 46.4167 10.6149V15.5124ZM54.9295 15.7497C56.2965 15.7497 57.3113 15.0378 57.767 14.3689V15.5124H60.4596V5.2643H57.767V6.40777C57.3113 5.76052 56.2965 5.02698 54.9295 5.02698C52.3197 5.02698 50.3106 7.48653 50.3106 10.3776C50.3106 13.2686 52.3197 15.7497 54.9295 15.7497ZM55.5094 13.1823C54.0181 13.1823 53.0239 12.0173 53.0239 10.3991C53.0239 8.78102 54.0181 7.61597 55.5094 7.61597C57.0007 7.61597 57.9949 8.78102 57.9949 10.3991C57.9949 12.0173 57.0007 13.1823 55.5094 13.1823ZM82.6216 15.5124H79.929L79.9083 5.28587H82.6009V6.45092C83.1394 5.63107 84.1336 5.04855 85.4177 5.04855C87.8204 5.04855 89.2288 6.83927 89.2288 9.51457V15.5124H86.5362V9.96764C86.5362 8.50054 85.9148 7.59439 84.7964 7.59439C83.5536 7.59439 82.6216 8.54369 82.6216 10.507V15.5124ZM96.1053 12.8587C94.7175 12.8803 93.5784 11.7152 93.5577 10.2481C93.5369 8.8026 94.6554 7.61597 96.0638 7.5944C97.4516 7.57282 98.5907 8.73787 98.6114 10.205V10.2265C98.6529 11.6505 97.5758 12.8155 96.2088 12.8587H96.1053ZM95.7946 20C98.7979 20 101.097 18.4035 101.097 14.7141V5.2643H98.4043V6.40777C97.8658 5.6095 96.8095 5.02698 95.546 5.02698C92.957 5.02698 90.9065 7.31392 90.9065 10.205C90.9065 13.096 92.9777 15.383 95.546 15.383C96.8095 15.383 97.8658 14.7789 98.4043 14.0237V14.7141C98.4043 16.3538 97.3687 17.5189 95.7739 17.5189C94.6347 17.5405 93.5162 17.0658 92.7085 16.246L91.2379 18.3387C92.3356 19.5038 94.0755 20 95.7946 20ZM109.34 15.5124H106.793L101.035 0.949304H104.121L108.077 11.068L111.971 0.949304H115.119L109.34 15.5124ZM117.605 3.58144C118.557 3.58144 119.324 2.78317 119.324 1.79072C119.324 0.798271 118.557 0 117.605 0C116.652 0 115.885 0.798271 115.885 1.79072C115.885 2.78317 116.652 3.58144 117.605 3.58144ZM118.951 15.5124V5.26429H116.258V15.5124H118.951ZM130.487 13.4628C129.576 14.8436 128.002 15.7497 125.931 15.7497C123.01 15.7497 120.711 13.6354 120.691 10.3991C120.691 7.35707 122.865 5.04855 125.869 5.04855C128.458 5.04855 130.715 6.75297 130.715 10.0971C130.736 10.4207 130.715 10.7443 130.674 11.068H123.321C123.466 12.4488 124.626 13.2039 125.931 13.2039C127.174 13.2039 128.023 12.6214 128.478 11.9094L130.487 13.4628ZM125.807 7.35707C124.812 7.35707 123.673 7.89644 123.425 9.14779H128.023C127.795 7.91802 126.801 7.35707 125.807 7.35707ZM140.844 15.5124H143.515L146.767 5.2643H143.868L142.024 11.8231L140.015 5.2643H137.944L135.955 11.8231L134.091 5.2643H131.212L134.485 15.5124H137.157L138.979 9.68716L140.844 15.5124ZM5.5723 15.4908H10.9989V0.949304H0.125V6.60195H5.5723V15.4908ZM21.8728 15.4908H15.6591L21.4793 0.949304H27.6929L21.8728 15.4908ZM18.766 4.16398C18.766 5.95131 17.375 7.40022 15.6591 7.40022C13.9433 7.40022 12.5523 5.95131 12.5523 4.16398C12.5523 2.37665 13.9433 0.927734 15.6591 0.927734C17.375 0.927734 18.766 2.37665 18.766 4.16398Z"
          fill="white"/>
</svg>
