<svg width="100%"
     height="100%"
     fill="currentColor"
     viewBox="0 0 104 24"
     xmlns="http://www.w3.org/2000/svg">
    <path d="M28.352 8.23942C28.352 7.43592 28.0862 7.03418 27.5546 7.03418C27.4442 7.03023 27.3338 7.04115 27.2262 7.06666C27.0871 7.09617 26.9458 7.11255 26.804 7.1156C26.7394 7.11663 26.6753 7.10338 26.616 7.07671C26.5567 7.05004 26.5035 7.01056 26.4599 6.96088C26.4135 6.90985 26.3771 6.84978 26.353 6.78411C26.3288 6.71844 26.3173 6.64845 26.3192 6.57815C26.3192 6.19806 26.5374 6.00801 26.9738 6.00801C26.9842 6.00801 27.062 6.01343 27.2073 6.02426C28.7655 6.13282 29.4928 6.1871 29.3891 6.1871H29.5439L33.2993 6.07299C33.3721 6.07299 33.6422 6.05668 34.1097 6.02406C34.2758 6.01323 34.4263 6.00782 34.5613 6.00782C35.1016 6.00782 35.3717 6.25756 35.3717 6.75703C35.3717 6.84393 35.3568 7.12081 35.327 7.58767C35.3047 7.93514 35.2935 8.25547 35.2935 8.54866C35.2892 8.815 35.2979 9.08139 35.3196 9.34681C35.3485 9.57914 35.3659 9.81288 35.3717 10.0471C35.3717 10.4597 35.1841 10.666 34.8088 10.666C34.4335 10.666 34.2458 10.3769 34.2458 9.79867V8.94684C34.2458 8.03056 34.0641 7.49053 33.7006 7.32677C33.4304 7.20685 32.7344 7.1469 31.6124 7.1469C31.1755 7.13178 30.7381 7.14839 30.3034 7.19662C29.8566 7.31799 29.6332 7.64888 29.6332 8.1893V9.81809C29.6332 10.2525 29.7257 10.5022 29.9107 10.5673C30.0323 10.594 30.1566 10.6049 30.2808 10.5998H30.9131C31.5609 10.5998 31.8848 10.3664 31.8848 9.89951C31.8819 9.7305 31.8688 9.56185 31.8456 9.39455C31.821 9.21073 31.8079 9.02545 31.8064 8.83987C31.8064 8.4055 31.9915 8.18831 32.3615 8.18831C32.7316 8.18831 32.9167 8.42174 32.9167 8.8886C32.9167 8.9755 32.883 9.31227 32.8155 9.89891C32.7618 10.3365 32.7329 10.7771 32.729 11.2183C32.729 11.4354 32.7498 11.8209 32.7915 12.3748C32.8019 12.4617 32.828 12.6517 32.8697 12.9449C32.8971 13.1337 32.9128 13.3242 32.9167 13.515C32.9276 13.5947 32.9206 13.6759 32.8962 13.7522C32.8717 13.8286 32.8306 13.8979 32.7759 13.9548C32.7213 14.0117 32.6547 14.0546 32.5815 14.08C32.5082 14.1055 32.4302 14.1128 32.3538 14.1014C31.9889 14.1014 31.8064 13.8734 31.8064 13.4174C31.8103 13.243 31.8234 13.069 31.8456 12.8962C31.8678 12.7233 31.8809 12.5493 31.8848 12.375C31.8848 11.9081 31.5877 11.6747 30.9936 11.6747H30.2899C29.9877 11.6747 29.8026 11.729 29.7348 11.8375C29.6472 12.0591 29.6123 12.2995 29.6332 12.5382V13.5485C29.6332 13.7222 29.6384 13.9556 29.6488 14.2488C29.6592 14.6071 29.6644 14.846 29.6644 14.9655C29.6748 15.3999 29.7582 15.6714 29.9145 15.7799C30.0286 15.856 30.2996 15.894 30.7275 15.894H32.8553C33.4703 15.894 33.8925 15.799 34.1218 15.609C34.3512 15.4189 34.4659 15.0633 34.4659 14.5422C34.4659 14.3794 34.4581 14.1377 34.4425 13.8173C34.4269 13.497 34.419 13.2553 34.4189 13.0923C34.4189 12.6037 34.604 12.3593 34.9742 12.3593C35.365 12.3593 35.5604 12.6091 35.5604 13.1085C35.5604 13.304 35.5526 13.6026 35.537 14.0044C35.5214 14.4061 35.5136 14.7047 35.5136 14.9002C35.5136 15.0522 35.5214 15.2775 35.537 15.5761C35.5526 15.8747 35.5604 16.1 35.5604 16.252C35.5604 16.7623 35.3206 17.0175 34.8411 17.0175C34.727 17.0175 34.5445 17.0051 34.2938 16.9802C34.1686 16.967 33.9393 16.9604 33.6057 16.9604C33.6787 16.9604 33.2722 16.948 32.3861 16.9232C31.5 16.8983 30.7338 16.8863 30.0876 16.8871C29.1077 16.8871 28.1486 16.9252 27.2106 17.0012C27.1632 17.0018 27.1161 17.0073 27.0698 17.0175H26.9764C26.5387 17.0175 26.3198 16.822 26.3198 16.4311C26.3198 16.0836 26.4816 15.9099 26.8053 15.9099C26.8574 15.9099 26.9981 15.9207 27.2275 15.9424C27.3344 15.9738 27.4448 15.9903 27.5559 15.9913C28.0875 15.9913 28.3533 15.5841 28.3533 14.7698L28.352 8.23942ZM41.4871 14.6884V13.646C41.4975 13.2008 41.6851 12.9782 42.05 12.9782C42.4149 12.9782 42.5971 13.2277 42.5966 13.7268C42.5966 14.9104 42.4516 15.7358 42.1617 16.2031C41.7686 16.8329 41.1216 17.1478 40.2205 17.1478C39.3922 17.1478 38.8021 16.8709 38.4501 16.3172C38.1914 15.9154 38.062 15.2313 38.062 14.2649V10.3559C38.062 10.1279 37.9605 10.0138 37.7577 10.0138H37.2461C37.1681 10.0164 37.0903 10.0026 37.0176 9.97322C36.9448 9.94385 36.8784 9.89951 36.8224 9.84285C36.7682 9.78947 36.7252 9.72491 36.6963 9.65328C36.6674 9.58165 36.6532 9.50453 36.6545 9.42684C36.6547 9.35106 36.6693 9.27608 36.6975 9.20621C36.7256 9.13634 36.7668 9.07297 36.8186 9.01974C36.8644 8.96486 36.9208 8.92062 36.9841 8.8899C37.0474 8.85919 37.1162 8.84268 37.186 8.84145H37.7959C37.9734 8.84145 38.0622 8.73831 38.0622 8.53202V6.8543C38.0622 6.44172 38.2655 6.23543 38.6721 6.23543C39.0473 6.23543 39.235 6.44172 39.235 6.8543V8.59759C39.235 8.76043 39.3288 8.84185 39.5165 8.84185H41.2208C41.6169 8.84185 41.815 9.03189 41.815 9.41198C41.815 9.81373 41.6013 10.0146 41.1739 10.0146H39.4537C39.3078 10.0146 39.2348 10.1286 39.2348 10.3567V14.3635C39.2348 15.5036 39.5995 16.0737 40.3289 16.0737C41.0688 16.0731 41.4549 15.6113 41.4871 14.6884ZM45.834 6.43314L45.7707 9.60632C46.1035 9.25638 46.4906 8.96734 46.9156 8.75131C47.3032 8.58534 47.7196 8.50494 48.1386 8.51518C49.0376 8.51518 49.759 8.78123 50.3028 9.31333C50.5743 9.58302 50.7875 9.90993 50.9281 10.2722C51.0688 10.6345 51.1336 11.0239 51.1183 11.4144V14.1345C51.1183 14.7752 51.1235 15.1281 51.1339 15.1932C51.1756 15.7361 51.3112 16.0076 51.5405 16.0076C51.6644 15.9979 51.7859 15.9671 51.9001 15.9164C51.9825 15.8992 52.0664 15.8915 52.1504 15.8934C52.5361 15.8934 52.7289 16.0783 52.7289 16.4481C52.7289 16.8179 52.4788 17.0028 51.9785 17.0028C51.7797 16.9979 51.5814 16.9815 51.3844 16.9539C51.0317 16.9058 50.6767 16.8786 50.3211 16.8725C50.1121 16.8689 49.9032 16.8797 49.6956 16.9049C49.2578 16.9701 48.9868 17.0026 48.8826 17.0026C48.7112 17.0087 48.5438 16.9477 48.4134 16.8317C48.3531 16.7789 48.305 16.7127 48.2725 16.638C48.24 16.5633 48.224 16.482 48.2257 16.4C48.2253 16.3312 48.2399 16.2633 48.2683 16.2012C48.2967 16.1391 48.3383 16.0846 48.3898 16.0416C48.4958 15.9452 48.6322 15.893 48.7728 15.895C48.9117 15.8997 49.0489 15.9271 49.1794 15.9765C49.2651 16.0076 49.355 16.0241 49.4457 16.0254C49.7585 16.0254 49.9201 15.6725 49.9305 14.9667C49.9305 14.8364 49.9409 14.5812 49.9616 14.2013V12.6214C49.9616 11.5139 49.857 10.7701 49.6477 10.39C49.3443 9.82542 48.8106 9.54312 48.0467 9.54312C47.2201 9.54312 46.6184 9.83631 46.2418 10.4227C45.9802 10.8244 45.8442 11.4705 45.8338 12.3609V13.5337C45.8256 13.6445 45.8046 13.7538 45.7713 13.8593V14.1688C45.7713 14.7876 45.7766 15.1459 45.7874 15.2437C45.841 15.7758 45.9964 16.0418 46.2535 16.0418C46.3766 16.0346 46.4982 16.01 46.6149 15.9685C46.7265 15.9284 46.8428 15.9037 46.9606 15.8952C47.3037 15.8952 47.4753 16.0686 47.4753 16.4154C47.4753 16.807 47.2444 17.0028 46.7826 17.0028C46.6355 17.0028 46.4151 16.9865 46.1212 16.9539C45.7813 16.9141 45.4398 16.8923 45.0978 16.8887C44.9194 16.8887 44.6728 16.905 44.358 16.9376C43.9381 16.9811 43.6704 17.0028 43.5549 17.0028C43.1246 17.0028 42.9094 16.8014 42.9094 16.3986C42.9094 16.063 43.1112 15.8952 43.5146 15.8952C43.6173 15.8893 43.7201 15.9048 43.817 15.9408C43.9418 15.9771 44.0698 16.0001 44.199 16.0093C44.3689 16.0093 44.483 15.8437 44.5414 15.5125C44.6198 14.8393 44.6541 14.1612 44.6441 13.4832V10.5677C44.6441 8.93892 44.6128 7.91011 44.5503 7.48129C44.4878 7.05247 44.342 6.83799 44.1129 6.83786C44.0022 6.84315 43.8922 6.85954 43.7845 6.88679C43.6716 6.91493 43.5564 6.93132 43.4404 6.93572C43.0854 6.93572 42.9079 6.76199 42.9079 6.41452C42.9083 6.33873 42.9254 6.26404 42.9579 6.19625C42.9905 6.12847 43.0376 6.06941 43.0956 6.02366C43.223 5.91422 43.384 5.85639 43.549 5.86082C43.6011 5.86082 43.7786 5.87713 44.0815 5.90976C44.2945 5.93222 44.5085 5.94306 44.7226 5.94224C44.8537 5.93854 44.9843 5.9249 45.1134 5.90144C45.2323 5.87935 45.3524 5.86571 45.473 5.86063C45.7128 5.86063 45.8327 6.04057 45.8327 6.40045L45.834 6.43314ZM60.4538 12.1345C60.4745 12.3889 60.4479 12.6451 60.3755 12.889C60.3232 12.9815 60.1717 13.0277 59.9207 13.0277H54.9346C54.8423 13.0169 54.749 13.0369 54.6684 13.085C54.6455 13.1098 54.6281 13.1395 54.6173 13.172C54.6064 13.2045 54.6025 13.2391 54.6056 13.2734C54.582 14.0243 54.8344 14.7562 55.3112 15.3199C55.5282 15.5824 55.798 15.7919 56.1016 15.9334C56.4051 16.0749 56.7348 16.145 57.0673 16.1387C57.5159 16.142 57.9552 16.0057 58.3289 15.7474C58.6847 15.5214 58.9495 15.1683 59.0737 14.754L59.215 14.2817C59.2414 14.1625 59.3083 14.0572 59.4033 13.9853C59.4984 13.9135 59.6153 13.8799 59.7323 13.8908C60.1191 13.8908 60.3125 14.0971 60.3125 14.5097C60.3125 15.2155 59.9685 15.8428 59.2806 16.3917C58.6102 16.9336 57.7835 17.2232 56.9349 17.2134C55.841 17.2134 54.9708 16.8304 54.3242 16.0644C53.6776 15.2984 53.3543 14.2696 53.3543 12.978C53.3543 11.6532 53.6982 10.5783 54.3862 9.75311C54.7166 9.34986 55.1299 9.02921 55.5955 8.81492C56.0611 8.60063 56.5669 8.49819 57.0757 8.51518C57.5257 8.5005 57.9737 8.58386 58.3911 8.75991C58.8084 8.93597 59.1859 9.20084 59.4993 9.53758C59.8169 9.88207 60.0649 10.2894 60.2287 10.7354C60.3926 11.1815 60.4689 11.6572 60.4533 12.1345H60.4538ZM54.7772 11.724C54.7772 11.876 54.8922 11.952 55.1223 11.952H58.8727C59.0924 11.952 59.2023 11.876 59.2023 11.724C59.2036 11.4425 59.1485 11.1638 59.0404 10.9057C58.9324 10.6477 58.7737 10.416 58.5747 10.2256C58.3821 10.0222 58.1524 9.8612 57.899 9.75207C57.6456 9.64294 57.3738 9.58792 57.0996 9.59027C56.5056 9.59353 55.9344 9.82895 55.4991 10.2499C55.0178 10.6897 54.7772 11.1811 54.7772 11.724ZM63.9714 9.25667V9.70438C64.2077 9.3311 64.531 9.0263 64.9111 8.81844C65.2911 8.61059 65.7156 8.50645 66.1447 8.51577C66.7936 8.48581 67.4287 8.71609 67.9195 9.1592C68.1416 9.36649 68.3176 9.62185 68.4352 9.9074C68.5527 10.193 68.6088 10.5018 68.5997 10.8124C68.618 11.2303 68.4964 11.642 68.2557 11.977C68.1492 12.121 68.0115 12.2366 67.8539 12.3145C67.6963 12.3923 67.5231 12.4302 67.3488 12.4249C67.1252 12.431 66.9076 12.3497 66.7388 12.1969C66.66 12.1298 66.5966 12.0451 66.5534 11.9491C66.5101 11.8531 66.488 11.7482 66.4888 11.6422C66.489 11.5557 66.5056 11.4702 66.5379 11.3905C66.5701 11.3108 66.6172 11.2386 66.6765 11.1781C66.7316 11.1141 66.7991 11.0629 66.8744 11.0279C66.9498 10.9928 67.0313 10.9746 67.1139 10.9744C67.1832 10.9829 67.2513 10.9993 67.3172 11.0233C67.3746 10.913 67.4067 10.7904 67.4109 10.665C67.4103 10.5084 67.3737 10.3542 67.3043 10.2154C67.2348 10.0766 67.1344 9.95704 67.0116 9.86682C66.7262 9.643 66.3757 9.52803 66.0186 9.54114C65.2056 9.54114 64.6635 9.92117 64.3924 10.6812C64.2257 11.1481 64.1423 11.8538 64.1423 12.7985V13.8734C64.1423 14.601 64.1476 15.0081 64.1581 15.0949C64.2106 15.7138 64.3737 16.0232 64.6473 16.0232C64.7908 16.0223 64.9338 16.0036 65.0731 15.9675C65.1714 15.9419 65.2722 15.9279 65.3736 15.9257C65.7102 15.9257 65.8785 16.0968 65.8785 16.439C65.8785 16.8134 65.6648 17.0006 65.2374 17.0006H65.1748C64.9369 16.9945 64.6994 16.9754 64.4634 16.9436C64.2273 16.9117 63.9898 16.8927 63.7519 16.8865C63.3349 16.8865 63.0065 16.8974 62.7668 16.919L61.8919 17.0004C61.4646 17.0004 61.2509 16.8104 61.2509 16.4303C61.2509 16.0937 61.4507 15.9253 61.8505 15.9253C61.9297 15.9233 62.009 15.9288 62.0873 15.9416L62.324 15.9905C62.3966 16.0077 62.4705 16.0186 62.5448 16.023C62.8079 16.023 62.9499 15.7733 62.9708 15.2738V14.4431L62.9239 10.7458C62.8925 10.1051 62.7362 9.78481 62.4547 9.78481C62.3391 9.78844 62.224 9.80209 62.1107 9.82562C61.9973 9.84914 61.8822 9.86279 61.7666 9.86642C61.4226 9.86642 61.2507 9.69533 61.2507 9.35315C61.2507 8.97873 61.4748 8.79153 61.923 8.79153C62.08 8.79587 62.2366 8.80949 62.3921 8.83234C62.5476 8.85518 62.7043 8.86881 62.8613 8.87315C62.9975 8.86816 63.1333 8.85454 63.2679 8.83234C63.3644 8.80329 63.4645 8.78954 63.565 8.79153C63.8359 8.79206 63.9714 8.9471 63.9714 9.25667ZM72.5771 8.51538C73.2044 8.49242 73.8203 8.6936 74.3226 9.08551V9.02034C74.3226 8.61859 74.4894 8.41771 74.823 8.41771C75.1669 8.41771 75.3389 8.59145 75.3389 8.93892C75.3389 9.00403 75.3302 9.16693 75.3129 9.42763C75.2783 9.64295 75.2609 9.86088 75.2608 10.0792C75.2647 10.2698 75.2778 10.4601 75.2999 10.6493C75.3221 10.8386 75.3352 11.0288 75.3391 11.2195C75.3391 11.632 75.1697 11.8383 74.831 11.8383C74.7628 11.8473 74.6937 11.84 74.6287 11.8171C74.5636 11.7941 74.5044 11.7562 74.4555 11.706C74.4066 11.6559 74.3692 11.5948 74.3461 11.5275C74.3231 11.4601 74.3149 11.3882 74.3224 11.3171V10.7797C74.312 10.4539 74.1314 10.1743 73.7806 9.94091C73.4109 9.70193 72.9825 9.58023 72.5475 9.59067C72.1148 9.57487 71.6893 9.70952 71.3381 9.9734C71.1885 10.0788 71.0659 10.2208 70.9811 10.3868C70.8962 10.5529 70.8517 10.7381 70.8513 10.9263C70.8513 11.6212 71.3114 12.0338 72.2316 12.1642L73.1414 12.2945C74.9191 12.5443 75.8079 13.3098 75.8079 14.5911C75.8176 14.9552 75.745 15.3166 75.596 15.6462C75.4471 15.9758 75.2259 16.2643 74.9504 16.4885C74.3788 16.9718 73.6305 17.2134 72.7053 17.2134C71.8955 17.2312 71.104 16.9612 70.4612 16.4479V16.7578C70.4612 17.1487 70.2837 17.3441 69.9287 17.3441C69.543 17.3441 69.3502 17.1215 69.3502 16.6763C69.3953 16.3959 69.4266 16.1132 69.444 15.8295C69.4647 15.6785 69.4751 15.5263 69.4751 15.3738C69.4764 15.128 69.4555 14.8826 69.4126 14.6409C69.3765 14.464 69.3556 14.2841 69.35 14.1034C69.35 13.7233 69.5168 13.5333 69.8504 13.5333C70.0693 13.5333 70.2075 13.5876 70.2648 13.6961C70.3466 13.9753 70.381 14.2673 70.3665 14.5588C70.3769 15.0257 70.6115 15.4057 71.0702 15.6989C71.6035 16.0118 72.2098 16.1641 72.8213 16.1387C73.2757 16.1573 73.7226 16.0137 74.0879 15.7316C74.2441 15.6148 74.3711 15.4606 74.4581 15.282C74.5452 15.1034 74.5898 14.9057 74.5883 14.7054C74.5883 13.967 74.0254 13.5378 72.8995 13.4178C71.8258 13.2989 71.0075 13.079 70.4447 12.7581C69.8819 12.4372 69.6004 11.8752 69.6003 11.0723C69.5908 10.7185 69.6605 10.3673 69.8039 10.0464C69.9472 9.72556 70.1603 9.44385 70.4262 9.22359C70.977 8.75145 71.694 8.51538 72.5771 8.51538ZM81.5308 11.5612C81.5308 11.1268 81.7914 10.8771 82.3126 10.812C82.2915 10.6322 82.2336 10.4592 82.1429 10.3047C82.0522 10.1502 81.9307 10.0177 81.7868 9.91615C81.4439 9.68575 81.0408 9.57195 80.6331 9.59047C80.2948 9.58155 79.9594 9.65842 79.6558 9.81447C79.3523 9.97052 79.0897 10.2011 78.8907 10.4863C78.4511 11.0835 78.2314 11.8759 78.2314 12.8635C78.2314 13.8842 78.4378 14.685 78.8508 15.2659C79.0455 15.5477 79.3043 15.7749 79.6039 15.927C79.9036 16.0791 80.2348 16.1514 80.5679 16.1375C81.0002 16.1469 81.4229 16.0035 81.767 15.7308C82.1138 15.4482 82.3595 15.0524 82.4647 14.607C82.5693 14.2269 82.632 14.0097 82.6528 13.9554C82.6976 13.8565 82.7688 13.7731 82.8579 13.7154C82.9471 13.6576 83.0503 13.6279 83.1553 13.6297C83.2363 13.6268 83.317 13.6411 83.3925 13.6717C83.468 13.7024 83.5367 13.7488 83.5944 13.808C83.6515 13.8677 83.6963 13.9389 83.7259 14.0173C83.7556 14.0956 83.7695 14.1795 83.7669 14.2637C83.7502 14.6045 83.665 14.9378 83.5166 15.2421C83.3706 15.5894 83.1698 15.9087 82.9225 16.1868C82.6172 16.5257 82.2458 16.7926 81.8333 16.9697C81.4208 17.1467 80.9767 17.2298 80.5308 17.2134C80.0451 17.2313 79.5617 17.1353 79.1165 16.9323C78.6712 16.7293 78.2755 16.4245 77.9586 16.0406C77.3071 15.2588 76.9813 14.2327 76.9813 12.9623C76.9813 11.6153 77.3173 10.5376 77.9893 9.72934C78.6612 8.92109 79.5551 8.51663 80.6708 8.51597C81.4228 8.48756 82.1599 8.73874 82.7504 9.22458C83.0133 9.4368 83.2252 9.70997 83.369 10.0224C83.5129 10.3348 83.5849 10.6779 83.5792 11.0243C83.5927 11.3852 83.4786 11.7386 83.2587 12.0178C83.1593 12.1435 83.0338 12.244 82.8916 12.3117C82.7494 12.3795 82.5942 12.4126 82.4379 12.4087C82.1995 12.4171 81.9672 12.3297 81.789 12.1644C81.7064 12.0896 81.6404 11.9968 81.5958 11.8926C81.5512 11.7884 81.529 11.6753 81.5308 11.5612ZM91.6787 17.1476C90.8239 17.1476 90.2978 16.7621 90.1002 15.9911C89.5677 16.806 88.7335 17.2134 87.5977 17.2134C86.7533 17.2134 86.0783 16.9962 85.5728 16.5618C85.3254 16.3523 85.1281 16.0858 84.9965 15.7833C84.8649 15.4807 84.8025 15.1505 84.8144 14.8186C84.7956 14.411 84.8904 14.0066 85.0874 13.6539C85.2844 13.3013 85.5752 13.0156 85.9247 12.8314C86.1521 12.6919 86.3967 12.5853 86.6517 12.5144C86.8546 12.4656 87.2637 12.4031 87.8791 12.327C88.7547 12.2293 89.3252 12.0936 89.5907 11.9199C89.8562 11.7463 89.9894 11.4259 89.9901 10.959C89.9989 10.76 89.9632 10.5616 89.8859 10.3794C89.8085 10.1972 89.6917 10.0362 89.5445 9.90902C89.1859 9.63395 88.746 9.49877 88.3015 9.52708C87.835 9.52628 87.3784 9.6678 86.9881 9.93418C86.8318 10.0427 86.7537 10.1568 86.7537 10.2763C86.7537 10.3197 86.8006 10.374 86.8944 10.4391C86.972 10.5056 87.0326 10.591 87.0708 10.6878C87.109 10.7846 87.1236 10.8897 87.1133 10.9938C87.1157 11.0952 87.0967 11.196 87.0575 11.2889C87.0183 11.3818 86.96 11.4645 86.8866 11.5313C86.7292 11.6748 86.5252 11.7506 86.3161 11.743C86.1893 11.7462 86.0633 11.7218 85.9462 11.6713C85.829 11.6208 85.7233 11.5454 85.6358 11.4498C85.5464 11.3556 85.4761 11.2435 85.4291 11.1204C85.3821 10.9973 85.3593 10.8656 85.3621 10.7331C85.3621 10.1256 85.6514 9.6044 86.2299 9.16951C86.8456 8.72278 87.5829 8.49396 88.3329 8.51676C90.2301 8.51676 91.1787 9.46481 91.1787 11.3609V14.644C91.1693 14.9532 91.1797 15.2626 91.2099 15.5703C91.2724 15.9495 91.4499 16.1391 91.7424 16.1391C92.1073 16.1391 92.2898 15.794 92.2898 15.1038V14.3114C92.2898 13.9663 92.4488 13.7938 92.7669 13.7938C93.1056 13.7938 93.2749 14.0543 93.2749 14.5755V15.5858C93.2532 16.6269 92.7212 17.1476 91.6787 17.1476ZM89.9276 13.9065V12.7502C89.7201 12.9541 89.4732 13.1095 89.2033 13.2058C88.7571 13.3269 88.3009 13.4032 87.8407 13.4338C86.657 13.5527 86.0652 14.0087 86.0652 14.8019C86.0578 14.9886 86.0929 15.1744 86.1676 15.3443C86.2424 15.5141 86.3546 15.6631 86.4952 15.7791C86.8324 16.0345 87.2438 16.1611 87.66 16.1375C88.3585 16.1375 88.9084 15.9394 89.3097 15.5432C89.5153 15.3294 89.6763 15.0737 89.7826 14.792C89.889 14.5104 89.9383 14.2089 89.9276 13.9065ZM96.1664 9.28936V9.75331C96.4587 9.35443 96.8382 9.03401 97.2733 8.8187C97.7085 8.60338 98.1867 8.49939 98.6682 8.51538C99.2285 8.51466 99.7789 8.66925 100.263 8.96328C100.713 9.20539 101.071 9.5985 101.279 10.079C101.441 10.5432 101.515 11.0352 101.498 11.5285V14.6232C101.498 15.0901 101.503 15.367 101.514 15.4539C101.566 15.8236 101.707 16.0085 101.936 16.0085C102.059 16.0054 102.182 15.9917 102.303 15.9677C102.409 15.946 102.516 15.9323 102.624 15.9269C102.689 15.9261 102.753 15.9386 102.814 15.9637C102.874 15.9889 102.929 16.0262 102.976 16.0735C103.023 16.1189 103.061 16.1743 103.087 16.2361C103.113 16.2979 103.125 16.3646 103.124 16.4319C103.125 16.5102 103.109 16.5877 103.076 16.6583C103.044 16.7289 102.996 16.7908 102.937 16.839C102.809 16.9484 102.648 17.0063 102.483 17.0018C102.242 16.9936 102.002 16.9716 101.764 16.9361C101.453 16.8941 101.14 16.8724 100.826 16.8709C100.601 16.8685 100.377 16.8793 100.154 16.9034C99.6324 16.9685 99.3562 17.001 99.3249 17.001C98.9079 17.001 98.6994 16.811 98.6994 16.4309C98.6994 16.0943 98.8801 15.9259 99.2416 15.9259C99.3379 15.9272 99.434 15.938 99.5284 15.9584C99.6539 15.9901 99.7814 16.0123 99.91 16.0248C100.165 16.0248 100.303 15.7262 100.325 15.129V12.0661C100.338 11.6682 100.312 11.2699 100.247 10.8775C100.168 10.4887 99.9512 10.1452 99.6392 9.91654C99.2973 9.66703 98.8886 9.53597 98.4711 9.54194C97.6403 9.54194 97.0432 9.85137 96.6798 10.4702C96.4306 10.8938 96.306 11.6159 96.306 12.6365V14.8027C96.2892 15.1315 96.3208 15.4611 96.3997 15.7799C96.4207 15.8572 96.4661 15.925 96.5285 15.9722C96.5909 16.0194 96.6667 16.0435 96.7438 16.0404C96.8602 16.0353 96.9756 16.0161 97.0878 15.9834C97.2051 15.9497 97.3258 15.9305 97.4474 15.9263C97.7706 15.9263 97.9322 16.1082 97.9322 16.4719C97.9322 16.8248 97.7237 17.0012 97.3067 17.0012C97.2233 17.0012 96.9522 16.9687 96.4937 16.9036C96.2396 16.8693 95.9836 16.853 95.7274 16.8546C95.4349 16.8599 95.1429 16.8817 94.8526 16.9198C94.3939 16.9741 94.1333 17.0012 94.0708 17.0012C93.633 17.0012 93.4141 16.8163 93.4141 16.4465C93.4049 16.375 93.4118 16.3022 93.4344 16.2339C93.4569 16.1656 93.4943 16.1037 93.5438 16.0531C93.5933 16.0025 93.6535 15.9646 93.7195 15.9424C93.7855 15.9202 93.8556 15.9144 93.9242 15.9253C94.0236 15.9325 94.1221 15.9489 94.2188 15.9743C94.3573 16.0063 94.4988 16.0227 94.6408 16.0232C94.9594 16.0232 95.1242 15.7083 95.1352 15.0785V10.7305C95.1359 10.4715 95.0899 10.2146 94.9998 9.9732C94.9657 9.90649 94.9136 9.85165 94.8498 9.81546C94.7861 9.77927 94.7136 9.76331 94.6413 9.76955C94.5313 9.77464 94.4219 9.79103 94.315 9.81848C94.208 9.84594 94.0987 9.86233 93.9886 9.86742C93.6064 9.86742 93.4152 9.69097 93.4152 9.33809C93.4152 8.97438 93.6498 8.79252 94.1189 8.79252C94.1714 8.79141 94.2239 8.79686 94.2752 8.80876L94.8538 8.87394C95.0005 8.8758 95.1471 8.86213 95.2912 8.83313C95.5622 8.80592 95.703 8.79232 95.7134 8.79232C96.0154 8.79232 96.1664 8.958 96.1664 9.28936Z"
          fill="white"/>
    <path d="M4.79684 11.4073C4.79686 11.273 4.82233 11.1402 4.87179 11.0162C4.92125 10.8923 4.99373 10.7798 5.08505 10.6851C5.17637 10.5905 5.28475 10.5155 5.40395 10.4646C5.52316 10.4137 5.65085 10.3878 5.77968 10.3884L7.40913 10.394C7.66894 10.394 7.91811 10.5015 8.10182 10.6928C8.28553 10.8842 8.38874 11.1438 8.38874 11.4144V17.8329C8.57227 17.7762 8.80714 17.7158 9.06559 17.6524C9.24465 17.6085 9.40423 17.5029 9.51845 17.3527C9.63268 17.2025 9.69486 17.0165 9.69489 16.8249V8.86383C9.69489 8.59318 9.7981 8.33362 9.98181 8.14222C10.1655 7.95082 10.4147 7.84327 10.6745 7.84322H12.3089C12.5687 7.84327 12.8178 7.9508 13.0015 8.14215C13.1852 8.3335 13.2885 8.59302 13.2885 8.86364V16.2528C13.2885 16.2528 13.6974 16.0805 14.0954 15.9053C14.2434 15.8402 14.3696 15.7311 14.4584 15.5917C14.5471 15.4523 14.5945 15.2887 14.5947 15.1214V6.31269C14.5947 6.04209 14.6978 5.78258 14.8815 5.59122C15.0652 5.39986 15.3143 5.29233 15.5741 5.29227H17.2068C17.4664 5.29254 17.7153 5.40016 17.8988 5.5915C18.0823 5.78284 18.1854 6.04223 18.1854 6.31269V13.5666C19.6009 12.498 21.0354 11.2127 22.1739 9.66733C22.339 9.44301 22.4483 9.17959 22.492 8.90057C22.5357 8.62155 22.5123 8.33561 22.4241 8.06826C21.8972 6.48903 21.0595 5.04177 19.9648 3.81911C18.87 2.59644 17.5423 1.62529 16.0666 0.967809C14.5908 0.310323 12.9996 -0.0190231 11.3946 0.00084856C9.78968 0.0207202 8.2064 0.38937 6.74608 1.08321C5.28576 1.77705 3.98058 2.7808 2.91404 4.03022C1.84751 5.27965 1.04311 6.74723 0.552323 8.33907C0.0615378 9.93091 -0.104826 11.6119 0.0638754 13.2746C0.232577 14.9372 0.73263 16.5449 1.53204 17.9947C1.67131 18.2448 1.87622 18.4483 2.12268 18.5813C2.36914 18.7143 2.64692 18.7713 2.92338 18.7455C3.23223 18.7172 3.61678 18.6772 4.07397 18.6213C4.27277 18.5975 4.45625 18.4984 4.58949 18.3429C4.72274 18.1873 4.79646 17.9862 4.79665 17.7778V11.4073"
          fill="white"/>
    <path d="M4.76204 21.7008C6.48301 23.0049 8.51677 23.7877 10.6383 23.9626C12.7599 24.1374 14.8865 23.6975 16.783 22.6915C18.6794 21.6855 20.2717 20.1526 21.3837 18.2625C22.4957 16.3723 23.0841 14.1986 23.0837 11.9817C23.0837 11.7044 23.0713 11.4314 23.0536 11.1592C18.8387 17.7075 11.0562 20.7687 4.76204 21.7008Z"
          fill="white"/>
</svg>
