<svg width="100%"
     height="100%"
     fill="currentColor"
     viewBox="0 0 95 20"
     xmlns="http://www.w3.org/2000/svg">
    <path d="M10.9827 9.01734H10.0578C7.98368 9.01734 6.0306 8.0408 4.78613 6.3815L0 0H4.62428L12.6969 8.07265C12.7837 8.15937 12.8324 8.27699 12.8324 8.39964V10.0975C12.8324 10.2201 12.7837 10.3377 12.6969 10.4245L4.62428 18.4971H0L4.78613 12.1156C6.0306 10.4563 7.98368 9.47977 10.0578 9.47977H10.9827V9.01734Z"
          fill="white"/>
    <path d="M16.6474 9.01734V9.47977H16.0483C14.7786 9.47977 13.6104 10.1736 13.0029 11.2886L9.07514 18.4971H12.2543L17.9503 10.4088C18.0052 10.3308 18.0347 10.2379 18.0347 10.1425V8.35458C18.0347 8.25926 18.0052 8.16626 17.9503 8.08832L12.2543 0H9.07514L13.0029 7.20852C13.6104 8.32349 14.7786 9.01734 16.0483 9.01734H16.6474Z"
          fill="white"/>
    <path d="M19.8844 9.01734V9.47977C19.2095 9.47977 18.6258 9.94995 18.4821 10.6093L16.763 18.4971H18.3815L20.7285 10.5619C20.7821 10.3809 20.8092 10.1932 20.8092 10.0044V8.49267C20.8092 8.30395 20.7821 8.11622 20.7285 7.93525L18.3815 0H16.763L18.4821 7.88779C18.6258 8.54716 19.2095 9.01734 19.8844 9.01734Z"
          fill="white"/>
    <path d="M31.7582 2.28033V16.0623H29.6676V5.7652H29.6288C29.4159 6.74963 28.719 7.18277 27.6737 7.18277H26.5896V5.23361H27.7124C29.1062 5.23361 29.6869 4.54451 29.6869 3.20569V2.28033H31.7582Z"
          fill="white"/>
    <path d="M33.8373 14.8416C33.8373 12.5774 34.631 11.2189 37.7864 9.58477L38.5994 9.15163C40.4384 8.20658 41.116 7.34028 41.116 6.08022C41.116 4.58389 40.2061 3.73728 38.8123 3.73728C37.3605 3.73728 36.3926 4.64296 36.3926 6.47399H34.1857C34.1857 3.61915 36.0635 1.98501 38.8123 1.98501C41.5225 1.98501 43.3422 3.52071 43.3422 6.04084C43.3422 7.91125 42.3355 9.40758 39.4124 10.9236L38.5026 11.4158C36.3538 12.5381 36.0441 13.2075 36.0441 14.2116H43.5357V16.0623H33.8373V14.8416Z"
          fill="white"/>
    <path d="M50.3834 16.3773C46.8021 16.3773 44.8663 14.4281 44.7502 11.2977H46.9957C47.0925 13.3847 48.3121 14.5069 50.4221 14.5069C52.3967 14.5069 53.5969 13.5028 53.5969 11.9277C53.5969 10.8842 53.0742 9.95886 51.0222 9.95886H49.28C46.3375 9.95886 44.9438 8.38377 44.9438 6.23773C44.9438 3.67822 46.957 1.96532 50.2866 1.96532C53.8292 1.96532 55.5327 3.91448 55.6488 6.76932H53.4226C53.3452 4.83984 52.2999 3.83573 50.2479 3.83573C48.3314 3.83573 47.1699 4.72171 47.1699 6.15897C47.1699 7.18277 47.7507 7.97032 49.5704 7.97032H51.3126C54.7584 7.97032 55.8424 9.84072 55.8424 11.849C55.8424 14.6053 53.7711 16.3773 50.3834 16.3773Z"
          fill="white"/>
    <path d="M59.646 16.0623L56.7229 5.23361H58.9298L60.8269 13.3847H60.8656L62.6852 5.23361H65.0663L66.886 13.3847H66.9247L68.8218 5.23361H71.0286L68.0668 16.0623H65.7826L63.8855 8.18689H63.8467L61.9496 16.0623H59.646Z"
          fill="white"/>
    <path d="M78.9502 13.9359C78.2727 15.5898 76.8983 16.3773 75.2335 16.3773C73.1815 16.3773 71.5748 15.196 71.5748 12.9318C71.5748 10.4708 73.5106 9.52571 75.6206 9.52571H77.3241C78.3888 9.52571 78.8922 9.07287 78.8922 8.28533C78.8922 7.20246 77.9242 6.67087 76.6853 6.67087C75.2141 6.67087 74.2268 7.41904 74.13 8.73817H71.9813C72.1361 6.41492 73.6267 4.91859 76.666 4.91859C79.7633 4.91859 80.9828 6.49368 80.9828 8.63973V13.5619C80.9828 14.0738 81.1764 14.2706 81.6797 14.2706H82.125V16.0623H80.7312C79.6278 16.0623 78.9889 15.452 78.9889 14.4478V13.9359H78.9502ZM73.7816 12.8924C73.7816 13.8178 74.3623 14.6053 75.7755 14.6053C77.3822 14.6053 78.8922 13.5422 78.8922 11.1599V10.0376H78.8534C78.505 10.7858 77.8662 11.1402 76.666 11.1599L75.8336 11.1795C74.3623 11.1992 73.7816 11.9671 73.7816 12.8924Z"
          fill="white"/>
    <path d="M83.7264 20V5.23361H85.8171V6.19835C85.8171 6.59212 85.8171 6.92682 85.7784 7.34028H85.8171C86.4753 5.82427 87.8884 4.91859 89.592 4.91859C92.0892 4.91859 94.4509 6.88745 94.4509 10.648C94.4509 14.4085 92.0892 16.3773 89.592 16.3773C87.8884 16.3773 86.4753 15.4716 85.8171 13.9556H85.7784C85.8171 14.3691 85.8171 14.7235 85.8171 15.1369V20H83.7264ZM85.7977 10.648C85.7977 13.0303 87.0754 14.625 89.0112 14.625C90.9664 14.625 92.244 13.0303 92.244 10.648C92.244 8.26564 90.9664 6.67087 89.0112 6.67087C87.0754 6.67087 85.7977 8.26564 85.7977 10.648Z"
          fill="white"/>
</svg>
