<svg width="100%"
     height="100%"
     fill="currentColor"
     viewBox="0 0 61 24"
     xmlns="http://www.w3.org/2000/svg">
    <path d="M36.2088 17.1429V9.51771H33.3913V7.47429H41.4621V9.51771H38.6445V17.1429H36.2088Z"
          fill="white"/>
    <path d="M41.6949 12.3017C41.6949 11.296 41.8834 10.4229 42.2611 9.68229C42.6384 8.93259 43.1782 8.352 43.8805 7.94057C44.5824 7.52914 45.4118 7.32343 46.3688 7.32343C47.334 7.32343 48.168 7.52914 48.8703 7.94057C49.5722 8.352 50.112 8.93259 50.4897 9.68229C50.8757 10.4229 51.069 11.296 51.069 12.3017C51.069 13.2983 50.8757 14.1714 50.4897 14.9211C50.112 15.6708 49.5722 16.256 48.8703 16.6766C48.168 17.088 47.334 17.2937 46.3688 17.2937C45.4118 17.2937 44.5824 17.088 43.8805 16.6766C43.1868 16.256 42.647 15.6708 42.2611 14.9211C41.8834 14.1714 41.6949 13.2983 41.6949 12.3017ZM44.2359 12.3017C44.2359 12.9051 44.3149 13.4217 44.4729 13.8514C44.6309 14.2812 44.8634 14.6103 45.1707 14.8389C45.4867 15.0674 45.8858 15.1817 46.3688 15.1817C47.0884 15.1817 47.6282 14.9303 47.9882 14.4274C48.3478 13.9154 48.528 13.2069 48.528 12.3017C48.528 11.6983 48.449 11.1817 48.291 10.752C48.133 10.3223 47.8915 9.99771 47.5669 9.77829C47.2509 9.54973 46.8514 9.43543 46.3688 9.43543C45.6488 9.43543 45.1135 9.68687 44.7626 10.1897C44.4112 10.6834 44.2359 11.3874 44.2359 12.3017Z"
          fill="white"/>
    <path d="M52.5263 17.1429V7.47429H54.3169L59.0171 13.5497H58.6353V7.47429H60.8866V17.1429H59.0961L54.4222 11.0674H54.804V17.1429H52.5263Z"
          fill="white"/>
    <path d="M8.63293 8.97394H11.3377V15.2565L8.26285 9.66368C8.26113 9.66057 8.25938 9.65745 8.25761 9.65436L8.25655 9.65254C8.15415 9.47661 8.13678 9.42587 8.13329 9.38151C8.1272 9.30411 8.14394 9.2268 8.18097 9.16007C8.218 9.09338 8.27338 9.04063 8.33933 9.00857C8.38702 8.98534 8.45523 8.97394 8.63293 8.97394Z"
          fill="white"/>
    <path d="M12.3394 15.2841V8.97394H15.0942C15.2162 8.97394 15.2923 8.991 15.3667 9.02713C15.3846 9.03578 15.3972 9.04513 15.4136 9.06257C15.4328 9.08297 15.4556 9.11276 15.4932 9.16903C15.529 9.24103 15.545 9.31088 15.545 9.39133C15.545 9.4905 15.5209 9.58761 15.4854 9.65481L12.3394 15.2841Z"
          fill="white"/>
    <path fill-rule="evenodd" clip-rule="evenodd"
          d="M23.3586 12C23.3586 18.6274 18.2009 24 11.8385 24C5.47609 24 0.318359 18.6274 0.318359 12C0.318359 5.37258 5.47609 0 11.8385 0C18.2009 0 23.3586 5.37258 23.3586 12ZM15.0942 7.93045L8.63293 7.9305C8.46001 7.9305 8.18583 7.93148 7.91527 8.06318C7.66294 8.18601 7.45315 8.38667 7.31379 8.63768C7.17444 8.88865 7.11211 9.17811 7.1349 9.46701C7.15971 9.78115 7.30153 10.0246 7.39324 10.182L7.3967 10.188L11.4039 17.4767C11.4928 17.6385 11.6578 17.7385 11.8368 17.7392C12.0157 17.7398 12.1814 17.641 12.2714 17.4799L16.3536 10.1756C16.3543 10.1742 16.3551 10.1728 16.3558 10.1715C16.3563 10.1705 16.3568 10.1696 16.3573 10.1686C16.4883 9.92576 16.5468 9.6471 16.5468 9.39133C16.5468 9.12214 16.4823 8.8719 16.3573 8.64013C16.3502 8.62684 16.3424 8.61386 16.3342 8.60126C16.2279 8.4393 16.0761 8.2203 15.79 8.08136C15.5513 7.96543 15.3228 7.93045 15.0942 7.93045Z"
          fill="white"/>
</svg>
