<svg width="100%"
     height="100%"
     fill="currentColor"
     viewBox="0 0 70 22"
     xmlns="http://www.w3.org/2000/svg">
    <path fill-rule="evenodd"
          clip-rule="evenodd"
          d="M6.99571 7.55283V0L0.371094 11.666L0.373041 11.6672L0.371094 11.6684L0.890872 11.9913L6.99571 15.8125V15.784V7.55283ZM6.99688 0L13.6215 11.666L13.6204 11.6667L13.6215 11.6673L6.99688 15.7829V15.7816V7.55176V0ZM6.99571 16.6775L0.371094 12.5619L6.99571 21.9999V16.6775ZM13.6215 12.5619L6.99688 16.6775V21.9999L13.6215 12.5619ZM28.7335 4.39453H29.8327V6.37496H29.8624C30.3674 5.81797 31.1992 5.69419 31.823 6.09647C32.0607 6.25119 32.2389 6.4678 32.3577 6.71535C32.4766 7.02479 32.5657 7.33424 32.536 7.64368V10.2121H31.4368V7.7984C31.4368 7.55085 31.3774 7.33424 31.2289 7.14857C31.0803 6.99385 30.8724 6.90102 30.6645 6.90102C30.4268 6.90102 30.2188 6.9629 30.0406 7.14857C29.8921 7.33424 29.803 7.55085 29.803 7.7984V10.2121H28.7038L28.7335 4.39453ZM25.646 8.72644V7.02451L27.2502 6.99357V5.9724H25.646V4.88935H24.5468V5.9724H23.5368V6.99357H24.5468V8.94305C24.5171 9.31438 24.636 9.65477 24.9033 9.90232C25.2004 10.1499 25.5569 10.2737 25.9431 10.2427H26.9828V9.12872H26.0619C25.9431 9.12872 25.8242 9.09777 25.7351 9.03589C25.6757 8.94305 25.646 8.85022 25.646 8.72644ZM18.1016 8.10668C18.1016 7.70441 18.1907 7.30213 18.3689 6.9308C18.5472 6.59041 18.7848 6.31191 19.1116 6.12625C19.4384 5.94058 19.8246 5.84775 20.181 5.84775C20.5375 5.84775 20.9237 5.94058 21.2505 6.12625C21.5476 6.31191 21.8149 6.59041 21.9634 6.9308C22.1417 7.30213 22.2308 7.70441 22.2308 8.10668V8.44707H19.2007C19.2007 8.69462 19.3195 8.94217 19.4978 9.0969C19.7057 9.28256 19.9434 9.34445 20.2107 9.34445C20.4187 9.34445 20.5969 9.31351 20.7752 9.18973C20.9831 9.06595 21.1911 8.91123 21.3396 8.69462L22.0229 9.43728C21.7852 9.71578 21.5178 9.93239 21.2208 10.0871C20.894 10.2418 20.5672 10.3037 20.2107 10.3037C19.8246 10.3037 19.4384 10.2109 19.1116 10.0252C18.7848 9.83956 18.5472 9.56106 18.3689 9.25162C18.161 8.94217 18.1016 8.5399 18.1016 8.10668ZM21.1019 7.64252C21.0722 7.42591 20.9831 7.2093 20.8049 7.05458C20.4187 6.74513 19.9137 6.74513 19.5275 7.05458C19.3492 7.2093 19.2601 7.42591 19.2007 7.64252H21.1019ZM34.0236 6.93145C33.8453 7.30278 33.7562 7.70506 33.7562 8.10733C33.7562 8.54055 33.8453 8.94283 34.0236 9.25227C34.2018 9.56171 34.4395 9.84021 34.7662 10.0259C35.093 10.2115 35.4792 10.3044 35.8654 10.3044C36.2219 10.3353 36.5486 10.2425 36.8754 10.0878C37.1725 9.93304 37.4398 9.71643 37.6775 9.43793L36.9942 8.69527C36.8457 8.91188 36.6378 9.0666 36.4298 9.19038C36.2516 9.31416 36.0733 9.3451 35.8654 9.3451C35.598 9.3451 35.3604 9.28321 35.1524 9.09755C34.9742 8.94283 34.8554 8.69527 34.8554 8.44772H37.8855V8.10733C37.8855 7.70506 37.7963 7.30278 37.6181 6.93145C37.4696 6.59106 37.2022 6.31256 36.9051 6.1269C36.5784 5.94123 36.1922 5.8484 35.8357 5.8484C35.4792 5.8484 35.093 5.94123 34.7662 6.1269C34.4395 6.31256 34.2018 6.59106 34.0236 6.93145ZM36.4595 7.05523C36.6378 7.20995 36.7269 7.42656 36.7566 7.64317H34.8554C34.9148 7.42656 35.0039 7.20995 35.1821 7.05523C35.5683 6.74578 36.0733 6.74578 36.4595 7.05523ZM40.5007 6.00408H39.461V10.2125H40.5602V7.82979C40.5304 7.58224 40.6196 7.33468 40.7681 7.14902C40.9166 6.96335 41.1543 6.87052 41.3919 6.90146C41.7484 6.87052 42.0455 7.08713 42.1346 7.42751L43.1743 7.08713C43.0852 6.7158 42.907 6.40636 42.6396 6.18975C42.3723 5.97314 42.0455 5.8803 41.7187 5.8803C41.2731 5.8803 40.8275 6.06597 40.5304 6.40636H40.5007V6.00408ZM44.4803 6.93145C44.3021 7.30278 44.213 7.70506 44.213 8.10733C44.1833 8.54055 44.2724 8.94283 44.4803 9.25227C44.6586 9.56171 44.8962 9.84021 45.223 10.0259C45.5498 10.2115 45.936 10.3044 46.3221 10.3044C46.6786 10.3353 47.0054 10.2425 47.3322 10.0878C47.6292 9.93304 47.8966 9.71643 48.1343 9.43793L47.451 8.69527C47.3025 8.91188 47.0945 9.0666 46.8866 9.19038C46.7083 9.31416 46.5301 9.3451 46.3221 9.3451C46.0548 9.3451 45.8171 9.28321 45.6092 9.09755C45.4309 8.94283 45.3121 8.69527 45.3121 8.44772H48.3422V8.10733C48.3422 7.70506 48.2531 7.30278 48.0748 6.93145C47.9263 6.59106 47.659 6.31256 47.3619 6.1269C47.0351 5.94123 46.6489 5.8484 46.2924 5.8484C45.936 5.8484 45.5498 5.94123 45.223 6.1269C44.8962 6.31256 44.6586 6.59106 44.4803 6.93145ZM46.9163 7.05523C47.0945 7.20995 47.1836 7.42656 47.2133 7.64317H45.3121C45.3715 7.42656 45.4606 7.20995 45.6389 7.05523C46.0251 6.74578 46.5301 6.74578 46.9163 7.05523ZM49.6503 6.00336V8.78834C49.6206 9.22156 49.7691 9.62384 50.0365 9.96422C50.5118 10.3974 51.1653 10.4903 51.7595 10.2427C51.9377 10.1499 52.116 10.0261 52.2348 9.87139H52.2645V10.2427H53.3042V6.00336H52.2051V8.54079C52.2051 8.72645 52.1457 8.94306 51.9971 9.09778C51.8486 9.2525 51.6704 9.31439 51.4624 9.31439H51.2842C50.9277 9.25251 50.69 8.91212 50.7494 8.54079V6.00336H49.6503ZM55.5035 6.00513H54.5232L54.5529 10.2136H55.5629V7.30479C55.5332 7.21196 55.5926 7.11913 55.652 7.02629C55.7114 6.96441 55.8303 6.93346 55.9194 6.93346C56.0085 6.93346 56.0976 6.96441 56.157 7.02629C56.2164 7.11913 56.2462 7.21196 56.2462 7.30479V10.2445H57.1968V7.33574C57.1968 7.2429 57.2265 7.15007 57.2859 7.05724C57.375 6.96441 57.4641 6.93346 57.5532 6.93346C57.6424 6.93346 57.7612 6.96441 57.8206 7.02629C57.88 7.08818 57.9097 7.21196 57.9097 7.30479V10.2445H58.9198V7.11913C58.9495 6.80968 58.8306 6.50024 58.6524 6.25269C58.4742 6.03608 58.2068 5.9123 57.9394 5.9123C57.6127 5.88136 57.2859 6.06702 57.1076 6.37646H57.0779C56.9294 6.09797 56.6323 5.9123 56.3056 5.9123C56.157 5.9123 56.0085 5.94325 55.86 6.03608C55.7411 6.12891 55.6223 6.25269 55.5332 6.37646H55.5035V6.00513ZM18.2539 15.9368H19.3234V18.7217H20.4522V15.9677H22.0861V14.9466H20.4819V14.4514C20.4819 14.3586 20.5116 14.2658 20.571 14.2039C20.6305 14.142 20.7196 14.1111 20.8087 14.1111H21.8484V13.0899H20.6602C20.3037 13.059 19.9472 13.1827 19.6798 13.3993C19.4422 13.6469 19.2937 13.9563 19.3234 14.2967V14.9156H18.2539V15.9368ZM23.5962 15.3793C23.4179 15.7506 23.3288 16.1529 23.3288 16.5551C23.2991 16.9574 23.3882 17.3597 23.5962 17.7001C23.7744 18.0405 24.0121 18.319 24.3389 18.5046C25.0221 18.876 25.8242 18.876 26.5074 18.5046C26.8342 18.319 27.0719 18.0405 27.2501 17.7001C27.6066 16.9884 27.6066 16.1219 27.2501 15.3793C27.0719 15.0389 26.8045 14.7604 26.5074 14.5747C25.8242 14.2034 25.0221 14.2034 24.3389 14.5747C24.0121 14.7604 23.7744 15.0389 23.5962 15.3793ZM26.0916 15.6887C26.2995 15.9362 26.3886 16.2457 26.3589 16.5551C26.3886 16.8646 26.2995 17.174 26.1213 17.4216L26.0916 17.4525C25.6757 17.8548 25.0518 17.8238 24.6656 17.4216C24.4577 17.174 24.3686 16.8646 24.3983 16.5551C24.3983 16.2457 24.4874 15.9362 24.6656 15.6887C24.8439 15.4721 25.1112 15.3793 25.3786 15.3793C25.646 15.3483 25.9133 15.4721 26.0916 15.6887ZM28.7659 14.4518V17.2368C28.7362 17.5153 28.7956 17.8247 28.9442 18.1032C29.3303 18.815 30.2215 19.0935 30.9048 18.6912C31.083 18.5983 31.2613 18.4746 31.3801 18.3198H31.4098V18.6912H32.4496V14.4518H31.3504V16.9892C31.3504 17.1749 31.291 17.3915 31.1425 17.5462C30.9939 17.701 30.8157 17.7628 30.6077 17.7628H30.4295C30.073 17.701 29.8057 17.3606 29.8651 16.9892V14.4518H28.7659ZM35.0663 14.4525H33.9672V18.661H35.0663V16.2473C35.0663 15.9997 35.1554 15.7831 35.304 15.5975C35.4822 15.4118 35.6902 15.3499 35.9278 15.3499C36.1358 15.3499 36.3437 15.4118 36.4922 15.5975C36.6408 15.7831 36.7002 15.9997 36.7002 16.2473V18.661H37.7993V16.0926C37.829 15.7522 37.7399 15.4118 37.5914 15.1024C37.4726 14.8548 37.2646 14.6691 37.027 14.5144C36.7893 14.3906 36.5517 14.3288 36.2843 14.3288C36.0466 14.3288 35.8387 14.3597 35.6307 14.4525C35.4228 14.5763 35.2446 14.7001 35.096 14.8548H35.0663V14.4525ZM39.1348 15.4106C38.9863 15.751 38.8972 16.1533 38.8972 16.5555C38.8972 16.9578 38.9863 17.3601 39.1348 17.7624C39.2834 18.0718 39.4913 18.3503 39.7884 18.536C40.0557 18.7216 40.4122 18.8145 40.739 18.8145C41.1846 18.8145 41.6302 18.6597 41.9273 18.3194H41.957V18.6907H42.967V12.8422H41.8679V14.6989H41.8381C41.5411 14.4513 41.1549 14.2966 40.7687 14.3275C40.4122 14.3275 40.0854 14.4204 39.7884 14.606C39.521 14.7917 39.2834 15.0702 39.1348 15.4106ZM41.8679 16.277V16.834C41.8679 17.0816 41.7787 17.3291 41.5708 17.4839C41.3925 17.6695 41.1549 17.7624 40.8875 17.7624C40.6499 17.7624 40.3825 17.6386 40.234 17.422C39.9072 16.8959 39.9072 16.2151 40.234 15.6891C40.4122 15.5034 40.6499 15.3797 40.9172 15.3797C41.0658 15.3797 41.244 15.4106 41.3925 15.5034C41.5411 15.5963 41.6599 15.6891 41.749 15.8438C41.8381 15.9676 41.8679 16.1223 41.8679 16.277ZM44.8369 16.618C44.5696 16.8655 44.421 17.2059 44.4507 17.5463C44.4507 17.7629 44.5102 17.9795 44.6587 18.1961C44.7775 18.3818 44.9558 18.5365 45.1637 18.6294C45.3717 18.7222 45.639 18.7841 45.8767 18.7841C46.1143 18.7841 46.352 18.7222 46.5896 18.6294C46.7976 18.5365 46.9758 18.3818 47.0946 18.1961H47.1244V18.6294H48.1047V15.9372C48.1047 15.504 47.9561 15.0398 47.6294 14.7304C47.3026 14.39 46.8273 14.2353 46.3817 14.2662C46.0846 14.2662 45.7578 14.3281 45.4905 14.4519C45.2231 14.5757 44.9855 14.7613 44.8072 14.9779C44.629 15.1945 44.5102 15.473 44.4507 15.7515L45.4608 15.9991C45.4905 15.7825 45.6093 15.5968 45.7578 15.4421C45.9064 15.2874 46.1143 15.2255 46.3223 15.2255C46.5005 15.2255 46.649 15.2564 46.7976 15.3493C46.9164 15.4112 46.9758 15.5349 46.9758 15.6587C46.9758 15.7825 46.8867 15.8753 46.7976 15.9372C46.5896 16.03 46.3817 16.0919 46.144 16.1229C45.6687 16.1848 45.2231 16.3395 44.8369 16.618ZM47.0055 16.618V17.1131C47.0055 17.2369 46.9461 17.3606 46.8867 17.4844C46.7976 17.6082 46.6787 17.701 46.5302 17.7629C46.3817 17.8248 46.2034 17.8558 46.0549 17.8558C45.9064 17.8558 45.7578 17.8248 45.639 17.7629C45.5499 17.701 45.4905 17.6082 45.4905 17.4844C45.4608 17.3606 45.5499 17.2369 45.639 17.175C45.8173 17.0512 46.0252 16.9893 46.2332 16.9584C46.375 16.9337 46.498 16.8895 46.6322 16.8413C46.6666 16.8289 46.7018 16.8163 46.7382 16.8036C46.8273 16.7727 46.9164 16.7108 46.9758 16.618H47.0055ZM51.8514 17.485C51.7919 17.3922 51.7622 17.2993 51.7622 17.1755V15.4427H53.3664V14.4215H51.7622V13.3385H50.6631V14.4215H49.6531V15.4427H50.6631V17.3922C50.6334 17.7635 50.7522 18.1039 51.0196 18.3514C51.3166 18.599 51.6731 18.7228 52.0593 18.6918H53.099V17.5778H52.1781C52.0593 17.5778 51.9405 17.5469 51.8514 17.485ZM58.7094 18.6896V17.6375H57.2537V14.4502H54.7881V15.5023H56.1546V17.6375H54.6989V18.6896H58.7094ZM56.1546 12.6555H57.2834V13.7695H56.1546V12.6555ZM59.8686 16.5552C59.8686 16.153 59.9577 15.7507 60.136 15.3793C60.3142 15.039 60.5519 14.7605 60.8786 14.5748C61.5619 14.2035 62.364 14.2035 63.0472 14.5748C63.3443 14.7605 63.6117 15.039 63.7899 15.3793C64.1464 16.122 64.1464 16.9885 63.7899 17.7002C63.6117 18.0406 63.374 18.3191 63.0472 18.5047C62.364 18.876 61.5619 18.876 60.8786 18.5047C60.5816 18.3191 60.3142 18.0406 60.136 17.7002C59.9577 17.3598 59.8686 16.9575 59.8686 16.5552ZM62.9284 16.5552C62.9581 16.2458 62.869 15.9363 62.661 15.6888C62.4828 15.4722 62.2154 15.3484 61.9481 15.3793C61.6807 15.3793 61.4133 15.4722 61.2351 15.6888C61.0569 15.9363 60.9678 16.2458 60.9678 16.5552C60.938 16.8647 61.0272 17.1741 61.2351 17.4217C61.6213 17.8239 62.2451 17.8549 62.661 17.4526L62.6907 17.4217C62.8393 17.1741 62.9284 16.8647 62.9284 16.5552ZM65.2738 14.4525H66.373V14.8548H66.4027C66.5512 14.7001 66.7295 14.5763 66.9374 14.4525C67.1454 14.3597 67.3533 14.3288 67.591 14.3288C67.8583 14.3288 68.096 14.3906 68.3336 14.5144C68.5713 14.6691 68.7793 14.8548 68.8981 15.1024C69.0466 15.4118 69.1357 15.7522 69.106 16.0926V18.661H68.0069V16.2473C68.0069 15.9997 67.9474 15.7831 67.7989 15.5975C67.6504 15.4118 67.4424 15.3499 67.2345 15.3499C66.9968 15.3499 66.7889 15.4118 66.6106 15.5975C66.4621 15.7831 66.373 15.9997 66.373 16.2473V18.661H65.2738V14.4525Z"
          fill="white"/>
</svg>
