<svg width="100%"
     height="100%"
     fill="currentColor"
     viewBox="0 0 74 20" xmlns="http://www.w3.org/2000/svg">
    <path fill-rule="evenodd"
          clip-rule="evenodd"
          d="M51.6926 0H47.1977V19.593H51.6926V0ZM16.1721 14.6564H20.7649C21.0578 15.9036 21.9372 16.4631 23.3788 16.4631C24.7703 16.4631 25.3819 15.9794 25.3819 15.1654C25.3819 14.2135 24.0358 14.0412 22.4231 13.8347C22.3111 13.8203 22.1978 13.8058 22.0836 13.7909C19.6412 13.4606 16.7587 12.9002 16.7587 9.38946C16.7587 6.51414 18.9325 4.50428 22.9387 4.50428C27.1892 4.50428 29.0944 6.48885 29.5346 9.44087H25.1619C24.9669 8.42288 24.2331 7.86333 22.8902 7.86333C21.5221 7.86333 21.0335 8.39675 21.0335 9.1097C21.0335 10.0188 22.2129 10.1759 24.2837 10.4517L24.331 10.458C26.7742 10.7892 29.7052 11.4246 29.7052 14.8603C29.7052 17.8115 27.5557 20 23.1588 20C18.9325 20 16.6365 18.0668 16.1721 14.6564ZM40.8704 12.5184V12.1114C40.8704 9.69365 39.8931 8.44729 38.1837 8.44729C36.522 8.44729 35.4234 9.6431 35.4234 12.1114V12.5184C35.4234 14.7827 36.522 15.9785 38.1595 15.9785C39.7952 15.9785 40.8704 14.8333 40.8704 12.5184ZM31.0022 12.5698V12.1114C31.0022 7.09898 33.9817 4.5287 38.1595 4.5287C42.4092 4.5287 45.2916 7.17568 45.2916 12.1114V12.5698C45.2916 17.4794 42.4577 19.9739 38.1344 19.9739C33.5416 19.9739 31.0022 17.4794 31.0022 12.5698ZM54.1609 0H58.6558V19.593H54.1609V0ZM69.6477 12.7738V13.6636C69.6477 15.1139 68.4503 16.5895 66.6673 16.5895C65.5921 16.5895 65.0298 16.1572 65.0298 15.2918C65.0298 14.7828 65.2264 14.4271 65.6172 14.1221C66.0565 13.817 66.5209 13.6898 67.7425 13.4606C68.5968 13.2819 69.2318 13.1041 69.6477 12.7738ZM64.86 19.9739C67.4982 19.9739 69.0377 18.778 69.8427 17.1247L70.3313 19.593H73.9961V10.1782C73.9961 6.76776 72.3101 4.52957 67.6195 4.52957C63.1982 4.52957 60.9508 6.79392 60.7316 10.2288H65.2507C65.2992 8.85432 66.0565 8.09082 67.6195 8.09082C69.1348 8.09082 69.6234 8.67737 69.6234 9.51582C69.6234 10.458 68.744 10.7116 66.5945 11.0176C64.2977 11.3993 63.2719 11.6033 62.1482 12.3397C61.0002 13.0788 60.2915 14.2241 60.2915 16.0056C60.2915 18.4477 61.7817 19.9739 64.86 19.9739ZM5.15421 19.5928L8.42745 13.8413L11.7007 19.5928H16.6834L11.0171 9.94886L16.2198 1.34905H11.2606L8.37806 6.41204L5.49561 1.34905H0.585713L5.69136 9.94886L0 19.5928H5.15421Z"
          fill="white"/>
</svg>
