<svg fill="currentColor"
     width="100%"
     height="100%"
     viewBox="0 0 122 24"
     xmlns="http://www.w3.org/2000/svg">
    <path fill-rule="evenodd"
          clip-rule="evenodd"
          d="M12.9896 0H6.36163L5.11431 1.52856L5.35024 5.0306L5.35956 5.0361L12.9896 0.145078V0ZM12.9896 0.917142L5.9866 5.40623L12.9896 9.53992V0.917142ZM12.9896 10.2957L5.65152 5.96421L12.9353 20.0548H12.9896V10.2957ZM12.9896 21.5467L12.5583 20.7123H10.7267L12.9896 24V21.5467ZM10.2741 20.0548H12.2184L5.48484 7.02868L5.938 13.7551L10.2741 20.0548ZM5.23655 12.736L4.75723 5.62109L4.74066 5.58904H1.80092L0.996094 6.57534L5.23655 12.736ZM2.33748 4.93151H4.71077L4.52977 2.2449L2.33748 4.93151ZM13.6209 0H20.2489L21.4962 1.52856L21.2603 5.0306L21.251 5.0361L13.6209 0.145078V0ZM13.6209 0.917142L20.6239 5.40623L13.6209 9.53992V0.917142ZM13.6209 10.2957L20.959 5.96421L13.6752 20.0548H13.6209V10.2957ZM13.6209 21.5467L14.0522 20.7123H15.8838L13.6209 24V21.5467ZM16.3364 20.0548H14.3921L21.1257 7.02868L20.6725 13.7551L16.3364 20.0548ZM21.374 12.736L21.8533 5.62109L21.8699 5.58904H24.8096L25.6144 6.57534L21.374 12.736ZM24.273 4.93151H21.8998L22.0808 2.2449L24.273 4.93151ZM97.6039 14.4565C97.8425 13.6517 97.9618 12.7581 97.9618 11.7758C97.9618 10.462 97.7459 9.31989 97.3142 8.34937C96.8938 7.36701 96.2688 6.60953 95.4394 6.07693C94.6099 5.53249 93.5873 5.26027 92.3716 5.26027C91.099 5.26027 90.0423 5.53249 89.2015 6.07693C88.372 6.62137 87.7528 7.37885 87.3437 8.34937C86.9347 9.31989 86.7302 10.4561 86.7302 11.758C86.7302 12.7404 86.8438 13.634 87.071 14.4388C87.2983 15.2436 87.6448 15.936 88.1107 16.5159C88.5766 17.0841 89.1617 17.5279 89.8662 17.8475C90.5706 18.1552 91.4001 18.309 92.3545 18.309C93.2749 18.309 94.0816 18.1552 94.7747 17.8475C95.4792 17.5397 96.0643 17.0959 96.5302 16.5159C97.0074 15.936 97.3653 15.2495 97.6039 14.4565ZM88.7754 14.5276C88.4913 13.7582 88.3493 12.841 88.3493 11.7758C88.3493 10.7106 88.4913 9.79923 88.7754 9.04175C89.0595 8.27244 89.4969 7.68658 90.0877 7.28416C90.6899 6.86992 91.4512 6.66279 92.3716 6.66279C93.7464 6.66279 94.752 7.11847 95.3883 8.02981C96.0245 8.92931 96.3427 10.178 96.3427 11.7758C96.3427 12.841 96.2007 13.7582 95.9166 14.5276C95.6325 15.2969 95.1951 15.8887 94.6043 16.3029C94.0248 16.7171 93.2749 16.9243 92.3545 16.9243C91.4455 16.9243 90.6899 16.7171 90.0877 16.3029C89.4969 15.8887 89.0595 15.2969 88.7754 14.5276ZM38.6179 7.03562C39.1406 6.7989 39.7258 6.68055 40.3734 6.68055C40.9188 6.68055 41.4188 6.75156 41.8732 6.89359C42.3391 7.03562 42.7595 7.1954 43.1345 7.37293L43.748 6.02367C43.2935 5.78696 42.7766 5.60351 42.1971 5.47331C41.6176 5.34312 41.0154 5.27803 40.3905 5.27803C39.4474 5.27803 38.6123 5.43781 37.8851 5.75737C37.1579 6.0651 36.5443 6.50893 36.0444 7.08888C35.5558 7.66882 35.1808 8.35529 34.9195 9.14827C34.6695 9.94126 34.5446 10.8171 34.5446 11.7758C34.5446 13.1014 34.7491 14.2553 35.1581 15.2377C35.5785 16.2201 36.2035 16.9775 37.0329 17.5101C37.8624 18.0427 38.8963 18.309 40.1348 18.309C40.8052 18.309 41.379 18.2676 41.8562 18.1848C42.3448 18.1019 42.8163 17.9717 43.2708 17.7942V16.4094C42.8163 16.5515 42.3505 16.6698 41.8732 16.7645C41.396 16.8592 40.8904 16.9065 40.3564 16.9065C39.4247 16.9065 38.6464 16.6994 38.0214 16.2852C37.4079 15.8709 36.942 15.2791 36.6239 14.5098C36.3171 13.7405 36.1637 12.8351 36.1637 11.7935C36.1637 11.0005 36.2603 10.2904 36.4534 9.66312C36.6466 9.024 36.925 8.48548 37.2886 8.04756C37.6521 7.59781 38.0953 7.26049 38.6179 7.03562ZM52.1136 5.86389C51.4659 5.59167 50.6365 5.45556 49.6252 5.45556H46.2677V18.1315H47.8016V12.8942H50.2217L53.1703 18.1315H54.9598L51.6193 12.4504C52.0284 12.2965 52.4147 12.0894 52.7783 11.829C53.1532 11.5568 53.46 11.1958 53.6986 10.7461C53.9372 10.2963 54.0565 9.73414 54.0565 9.05951C54.0565 8.25468 53.8975 7.58597 53.5793 7.05337C53.2612 6.52077 52.7726 6.12427 52.1136 5.86389ZM47.8016 6.84033H49.54C50.2104 6.84033 50.7615 6.91726 51.1932 7.07112C51.625 7.22499 51.9431 7.46762 52.1477 7.79901C52.3635 8.13041 52.4715 8.57425 52.4715 9.13052C52.4715 9.66312 52.3692 10.107 52.1647 10.462C51.9715 10.8171 51.6648 11.0893 51.2444 11.2787C50.824 11.4562 50.2842 11.545 49.6252 11.545H47.8016V6.84033ZM60.3809 11.687L63.5509 5.45556H65.2042L61.1478 13.2138V18.1315H59.6139V13.2848L55.5575 5.45556H57.2278L60.3809 11.687ZM73.9032 6.432C73.1761 5.78104 72.0171 5.45556 70.4264 5.45556H67.2052V18.1315H68.7391V13.1961H70.1366C71.0456 13.1961 71.8126 13.0895 72.4375 12.8765C73.0624 12.6516 73.5624 12.3498 73.9373 11.9711C74.3123 11.5923 74.5793 11.1662 74.7384 10.6928C74.9088 10.2076 74.994 9.70455 74.994 9.18378C74.994 8.00022 74.6304 7.08296 73.9032 6.432ZM68.7391 6.82258H70.29C71.3694 6.82258 72.1591 7.02378 72.6591 7.42619C73.159 7.8286 73.409 8.43814 73.409 9.2548C73.409 9.87025 73.284 10.3673 73.034 10.7461C72.7841 11.1248 72.4034 11.403 71.8921 11.5805C71.3808 11.7462 70.7388 11.829 69.9662 11.829H68.7391V6.82258ZM81.7171 18.1315H80.1832V6.85808H76.3825V5.45556H85.5008V6.85808H81.7171V18.1315ZM104.357 5.45556C105.369 5.45556 106.198 5.59167 106.846 5.86389C107.505 6.12427 107.993 6.52077 108.311 7.05337C108.63 7.58597 108.789 8.25468 108.789 9.05951C108.789 9.73414 108.669 10.2963 108.431 10.7461C108.192 11.1958 107.885 11.5568 107.51 11.829C107.147 12.0894 106.761 12.2965 106.351 12.4504L109.692 18.1315H107.902L104.954 12.8942H102.534V18.1315H101V5.45556H104.357ZM104.272 6.84033H102.534V11.545H104.357C105.016 11.545 105.556 11.4562 105.977 11.2787C106.397 11.0893 106.704 10.8171 106.897 10.462C107.101 10.107 107.204 9.66312 107.204 9.13052C107.204 8.57425 107.096 8.13041 106.88 7.79901C106.675 7.46762 106.357 7.22499 105.925 7.07112C105.494 6.91726 104.943 6.84033 104.272 6.84033ZM121.436 11.4385H117.226V12.8587H119.902V16.6225C119.698 16.6698 119.476 16.7171 119.238 16.7645C119.01 16.8118 118.755 16.8533 118.471 16.8888C118.198 16.9124 117.88 16.9243 117.516 16.9243C116.425 16.9243 115.545 16.7112 114.874 16.2852C114.204 15.8472 113.71 15.2436 113.392 14.4743C113.085 13.6932 112.931 12.7996 112.931 11.7935C112.931 10.7402 113.113 9.83474 113.477 9.07726C113.84 8.30795 114.369 7.71616 115.062 7.30192C115.755 6.88767 116.584 6.68055 117.55 6.68055C118.13 6.68055 118.686 6.75156 119.22 6.89359C119.766 7.03562 120.254 7.20723 120.686 7.40844L121.266 6.02367C120.743 5.78696 120.175 5.60351 119.561 5.47331C118.959 5.34312 118.317 5.27803 117.635 5.27803C116.306 5.27803 115.17 5.55025 114.227 6.09469C113.295 6.62729 112.579 7.37885 112.079 8.34937C111.579 9.31989 111.329 10.4679 111.329 11.7935C111.329 13.131 111.551 14.2908 111.994 15.2732C112.449 16.2437 113.108 16.9953 113.971 17.5279C114.835 18.0487 115.897 18.309 117.158 18.309C118.01 18.309 118.772 18.2558 119.442 18.1493C120.112 18.0427 120.777 17.877 121.436 17.6522V11.4385Z"
          fill="white"/>
</svg>
