<svg width="100%"
     height="100%"
     fill="currentColor"
     viewBox="0 0 119 22"
     xmlns="http://www.w3.org/2000/svg">
    <path fill-rule="evenodd"
          clip-rule="evenodd"
          d="M4.09966 0C2.03482 0 0.359375 1.74524 0.359375 3.8961V18.1039C0.359375 20.2548 2.03482 22 4.09966 22H23.8013C25.8662 22 27.5416 20.2548 27.5416 18.1039V3.8961C27.5416 1.74524 25.8662 0 23.8013 0H4.09966ZM1.77789 3.8961C1.77789 2.5613 2.81825 1.47761 4.09966 1.47761H23.8013C25.0827 1.47761 26.1231 2.5613 26.1231 3.8961V18.1039C26.1231 19.4387 25.0827 20.5224 23.8013 20.5224H4.09966C2.81825 20.5224 1.77789 19.4387 1.77789 18.1039V3.8961ZM46.6074 16.5056H44.6929V4.35885H46.5915V9.23733H46.6232C47.1137 8.16604 48.0788 7.60568 49.3762 7.60568C51.2274 7.60568 52.4299 8.89122 52.4299 10.8855V16.5056H50.5154V11.2975C50.5154 10.0449 49.8034 9.30326 48.6484 9.30326C47.4301 9.30326 46.6074 10.1768 46.6074 11.4953V16.5056ZM43.5228 12.7149C43.1747 15.1872 41.3551 16.7034 38.7287 16.7034C35.5484 16.7034 33.539 14.429 33.539 10.6877C33.539 6.99592 35.5642 4.70502 38.7287 4.70502C41.3077 4.70502 43.2855 6.38612 43.5228 8.8748H41.5608C41.3077 7.42444 40.1685 6.46852 38.7287 6.46852C36.8142 6.46852 35.58 8.10017 35.58 10.6877C35.58 13.3083 36.7983 14.9399 38.7287 14.9399C40.2001 14.9399 41.2602 14.0994 41.5767 12.7149H43.5228ZM53.7912 16.5056H55.7057V11.3964C55.7057 10.1603 56.3861 9.40218 57.5253 9.40218C57.7784 9.40218 58.1265 9.45162 58.2847 9.51755V7.68812C58.1423 7.63867 57.905 7.60571 57.6993 7.60571C56.7025 7.60571 55.943 8.21552 55.6741 9.23736H55.6266V7.7046H53.7912V16.5056ZM66.5574 12.1051C66.5574 14.9069 64.991 16.6374 62.4911 16.6374C60.007 16.6374 58.4248 14.9069 58.4248 12.1051C58.4248 9.31972 60.0229 7.58918 62.4911 7.58918C64.9752 7.58918 66.5574 9.31972 66.5574 12.1051ZM60.3868 12.1051C60.3868 13.951 61.1779 15.0387 62.4911 15.0387C63.8202 15.0387 64.6113 13.951 64.6113 12.1051C64.6113 10.2756 63.8202 9.18787 62.4911 9.18787C61.1779 9.18787 60.3868 10.2756 60.3868 12.1051ZM67.6027 16.5056H69.5172V11.4623C69.5172 10.1768 70.3083 9.30329 71.495 9.30329C72.65 9.30329 73.2987 10.012 73.2987 11.2646V16.5056H75.2291V10.869C75.2291 8.84181 74.074 7.60571 72.207 7.60571C70.9096 7.60571 69.9919 8.16607 69.4856 9.23736H69.4381V7.7046H67.6027V16.5056ZM84.3478 12.1051C84.3478 14.9069 82.7814 16.6374 80.2815 16.6374C77.7974 16.6374 76.2152 14.9069 76.2152 12.1051C76.2152 9.31972 77.8132 7.58918 80.2815 7.58918C82.7656 7.58918 84.3478 9.31972 84.3478 12.1051ZM78.1771 12.1051C78.1771 13.951 78.9682 15.0387 80.2815 15.0387C81.6105 15.0387 82.4017 13.951 82.4017 12.1051C82.4017 10.2756 81.6105 9.18787 80.2815 9.18787C78.9682 9.18787 78.1771 10.2756 78.1771 12.1051ZM86.3895 16.5879C87.0066 16.5879 87.4971 16.0935 87.4971 15.4342C87.4971 14.7915 87.0066 14.2805 86.3895 14.2805C85.7566 14.2805 85.2661 14.7915 85.2661 15.4342C85.2661 16.0935 85.7566 16.5879 86.3895 16.5879ZM88.9045 7.70449V5.74321H90.8348V7.70449H92.4328V9.27022H90.8348V13.9015C90.8348 14.6267 91.1512 14.9728 91.8474 14.9728C92.0373 14.9728 92.2904 14.9398 92.417 14.9233V16.4726C92.2113 16.5055 91.8158 16.5385 91.4044 16.5385C89.6165 16.5385 88.9045 15.8628 88.9045 14.1652V9.27022H87.7494V7.70449H88.9045ZM96.9947 9.1549C98.1497 9.1549 98.925 9.97897 98.9724 11.2645H94.9694C95.0485 9.99545 95.8713 9.1549 96.9947 9.1549ZM98.9724 13.885C98.7509 14.6102 98.0389 15.0717 97.1054 15.0717C95.8238 15.0717 94.9536 14.1323 94.9536 12.7149V12.5995H100.855V11.9402C100.855 9.27027 99.368 7.58918 96.9947 7.58918C94.5739 7.58918 93.0233 9.36916 93.0233 12.138C93.0233 14.9069 94.5739 16.6374 97.0738 16.6374C99.0357 16.6374 100.539 15.5167 100.792 13.885H98.9724ZM105.578 7.58918C107.778 7.58918 109.17 9.00657 109.297 10.8195H107.477C107.35 9.89656 106.686 9.22083 105.594 9.22083C104.328 9.22083 103.506 10.3251 103.506 12.1051C103.506 13.9345 104.344 15.0058 105.61 15.0058C106.638 15.0058 107.319 14.4454 107.493 13.4401H109.312C109.138 15.3684 107.699 16.6374 105.594 16.6374C103.142 16.6374 101.544 14.9069 101.544 12.1051C101.544 9.35268 103.126 7.58918 105.578 7.58918ZM110.314 16.5056H112.228V11.4953C112.228 10.1768 113.051 9.30326 114.269 9.30326C115.424 9.30326 116.136 10.0449 116.136 11.2975V16.5056H118.051V10.8855C118.051 8.89122 116.848 7.60568 114.997 7.60568C113.7 7.60568 112.734 8.16604 112.244 9.23733H112.212V4.35885H110.314V16.5056ZM13.9505 6.21359C11.4127 6.21359 9.35548 8.35656 9.35548 11C9.35548 13.6435 11.4127 15.7865 13.9505 15.7865C16.4883 15.7865 18.5455 13.6435 18.5455 11C18.5455 8.35656 16.4883 6.21359 13.9505 6.21359ZM7.93696 11C7.93696 7.5405 10.6293 4.73598 13.9505 4.73598C17.2717 4.73598 19.9641 7.5405 19.9641 11C19.9641 14.4596 17.2717 17.2641 13.9505 17.2641C10.6293 17.2641 7.93696 14.4596 7.93696 11ZM13.9021 9.42134C13.9021 9.01331 13.5845 8.68253 13.1928 8.68253C12.8011 8.68253 12.4835 9.01331 12.4835 9.42134V11.7893C12.4835 12.1973 12.8011 12.5281 13.1928 12.5281H15.4661C15.8578 12.5281 16.1753 12.1973 16.1753 11.7893C16.1753 11.3813 15.8578 11.0505 15.4661 11.0505H13.9021V9.42134Z"
          fill="white"/>
</svg>
