<svg width="100%"
     height="100%"
     fill="currentColor"
     viewBox="0 0 164 24"
     xmlns="http://www.w3.org/2000/svg">
    <path fill-rule="evenodd"
          clip-rule="evenodd"
          d="M161.25 4.04662C161.565 4.04662 161.85 3.9133 162.055 3.69822C162.261 3.48298 162.389 3.18536 162.389 2.85675C162.389 2.52812 162.261 2.2305 162.055 2.01526C161.85 1.80002 161.565 1.66685 161.25 1.66685C160.936 1.66685 160.652 1.80002 160.446 2.01526C160.24 2.2305 160.112 2.52812 160.112 2.85675C160.112 3.18536 160.24 3.48298 160.446 3.69822C160.652 3.91347 160.936 4.04662 161.25 4.04662ZM163.183 4.87662C162.688 5.39353 162.005 5.71334 161.25 5.71334C160.496 5.71334 159.812 5.39353 159.318 4.87662C158.824 4.35988 158.518 3.64534 158.518 2.85675C158.518 2.06801 158.824 1.35344 159.318 0.836704C159.812 0.319962 160.496 0 161.25 0C162.005 0 162.688 0.319962 163.183 0.836704C163.677 1.35344 163.983 2.06801 163.983 2.85675C163.983 3.64547 163.677 4.35988 163.183 4.87662ZM145.126 6.44201C144.798 6.69684 144.489 6.97622 144.2 7.27755C143.826 7.66851 143.488 8.09647 143.19 8.55574C146.965 8.93456 148.808 8.35289 150.419 7.84488L150.419 7.84478L150.419 7.84465C152.046 7.33154 153.45 6.88855 156.157 7.45021C156.104 7.39183 156.051 7.33422 155.996 7.27739C155.312 6.56214 154.509 5.97057 153.622 5.53752C152.019 6.35705 149.604 7.57685 145.126 6.44201ZM152.34 5.04212C151.627 4.83457 150.875 4.72362 150.098 4.72362C148.741 4.72362 147.459 5.06271 146.326 5.66429C149.179 6.19297 151.023 5.63954 152.34 5.04212ZM157.118 8.73103C153.849 7.82831 152.406 8.2834 150.698 8.82225L150.697 8.82241L150.696 8.82271C148.939 9.3772 146.916 10.0151 142.647 9.52071C142.326 10.1864 142.084 10.901 141.934 11.651C146.371 13.2378 148.581 11.9982 150.564 10.8855L150.565 10.8853C152.634 9.72393 154.482 8.68752 157.955 10.5075C157.74 9.87883 157.458 9.28355 157.118 8.73103ZM158.303 11.8621C154.741 9.69916 152.997 10.6773 151.026 11.783C148.891 12.9812 146.513 14.3149 141.789 12.6738C141.768 12.9272 141.757 13.1837 141.757 13.4428C141.757 13.9278 141.795 14.4035 141.868 14.8669C143.368 15.6525 145.096 15.603 146.858 15.1582C148.753 14.6795 150.703 13.7392 152.466 12.8695C154.4 11.9158 156.044 12.0825 157.36 12.6415C157.75 12.8071 158.109 13.0064 158.437 13.2201C158.426 12.7576 158.38 12.304 158.303 11.8621ZM160.134 14.6334C160.176 14.2426 160.198 13.8453 160.198 13.4428C160.198 10.5275 159.067 7.88813 157.24 5.97771C155.412 4.06762 152.887 2.88563 150.098 2.88563C147.309 2.88563 144.785 4.06746 142.957 5.97788C141.13 7.88826 139.999 10.5275 139.999 13.4428C139.999 16.358 141.13 18.9975 142.957 20.9079C144.785 22.8182 147.31 24 150.098 24C152.887 24 155.412 22.8183 157.24 20.9079C158.782 19.2955 159.828 17.1643 160.117 14.7859L160.198 14.696L160.134 14.6334ZM158.388 14.4185C157.984 14.1082 157.517 13.8093 156.994 13.5871C155.895 13.1208 154.517 12.985 152.883 13.7912C151.078 14.6815 149.079 15.6446 147.087 16.1477C145.385 16.5773 143.698 16.6689 142.151 16.0988C142.353 16.7595 142.628 17.3859 142.967 17.9676C144.027 18.4212 145.189 18.5283 146.348 18.4184C148.436 18.2199 150.509 17.3223 151.982 16.4528C153.204 15.7322 154.487 15.5933 155.655 15.7667C156.483 15.8895 157.255 16.1713 157.907 16.5134C158.146 15.8498 158.31 15.1478 158.388 14.4185ZM157.512 17.4424C156.943 17.1385 156.259 16.8857 155.521 16.7762C154.54 16.6304 153.468 16.7433 152.46 17.3385C150.893 18.2631 148.68 19.2186 146.436 19.4317C145.599 19.5112 144.757 19.4884 143.941 19.3249C144.025 19.4214 144.112 19.5158 144.2 19.6082C144.798 20.2332 145.486 20.7637 146.243 21.1766C150.175 18.9773 152.692 19.7024 155.067 20.3862L155.067 20.3863L155.123 20.4026C155.432 20.159 155.723 19.8934 155.996 19.6082C156.602 18.9752 157.115 18.2451 157.512 17.4424ZM154.013 21.1442C152.198 20.6571 150.206 20.3594 147.419 21.7026C148.26 22.0005 149.161 22.162 150.098 22.162C151.513 22.162 152.845 21.7938 154.013 21.1442ZM22.6328 20.5466V9.35987L14.0557 20.5495H11.5607L22.5713 6.18137L24.5863 6.1824L24.5869 20.546L22.6328 20.5466ZM13.9592 6.18137L3.01586 20.5466H0.523438L11.4566 6.18079L13.9592 6.18137ZM58.7392 6.18079H44.8478L46.5249 8.2233L58.7392 8.22346C59.3703 8.22346 59.9453 8.49427 60.3624 8.93025C60.7795 9.36626 61.0385 9.96732 61.0385 10.6272C61.0385 11.287 60.7792 11.8878 60.3621 12.3239C59.945 12.76 59.3703 13.031 58.7392 13.031H55.7214L61.5924 20.5483L64.123 20.5467L59.7347 14.9499C60.5069 14.7546 61.1988 14.3376 61.7437 13.7682C62.5144 12.9626 62.9926 11.8508 62.9926 10.6271C62.9926 9.40367 62.5144 8.29152 61.744 7.48611C60.9737 6.68083 59.9099 6.18079 58.7392 6.18079ZM84.8906 8.22283H71.4063C70.7535 8.22283 70.1658 8.46818 69.745 8.86291C69.3514 9.23263 69.1067 9.73387 69.1067 10.2774C69.1067 10.8189 69.3508 11.3178 69.7431 11.6864C70.1677 12.0849 70.7578 12.3332 71.41 12.3362C74.2619 12.3495 78.5665 12.3509 81.4187 12.3509C82.5671 12.3509 83.6181 12.798 84.3851 13.5182C85.179 14.2636 85.6721 15.3003 85.6721 16.4481C85.6721 17.5961 85.1793 18.633 84.3851 19.3787C83.6184 20.0985 82.5681 20.5455 81.4187 20.5455H69.107L67.392 18.5028H81.4187C82.0715 18.5028 82.6595 18.2575 83.0801 17.8626C83.4736 17.4929 83.7183 16.9916 83.7183 16.4482C83.7183 15.905 83.4736 15.4039 83.0798 15.034C82.6589 14.6391 82.0712 14.3936 81.4187 14.3936C78.5659 14.3936 74.2551 14.3839 71.4023 14.3707C70.2517 14.3655 69.2013 13.9192 68.4378 13.2024C67.6451 12.4582 67.1526 11.4244 67.1526 10.2776C67.1526 9.12955 67.6457 8.09248 68.4396 7.34712C69.2066 6.62718 70.2573 6.18015 71.4063 6.18015H83.2435L84.8906 8.22283ZM109.204 6.18015H99.3862L97.7673 8.22283H109.204C110.555 8.22283 111.785 8.8014 112.676 9.73341C113.568 10.6653 114.121 11.9501 114.121 13.3625C114.121 14.775 113.568 16.0599 112.676 16.9916C111.785 17.9237 110.555 18.5022 109.204 18.5022H99.3859L97.8349 20.5449H109.204C111.095 20.5449 112.813 19.7371 114.058 18.4359C115.302 17.1348 116.075 15.3388 116.075 13.3625C116.075 11.3864 115.302 9.59044 114.058 8.28912C112.813 6.9878 111.095 6.18015 109.204 6.18015ZM39.6255 18.5034L41.1138 20.5461H27.3626L28.4864 18.8944L38.0451 6.18106L39.4593 6.18151C40.8466 8.02758 42.3414 10.0183 43.8558 12.0349L43.866 12.0486C46.0415 14.9457 48.2568 17.8957 50.2505 20.5468L47.7735 20.5474C45.6858 17.7712 43.7601 15.2079 41.7807 12.5731C40.7935 11.259 39.7929 9.92714 38.7522 8.54219L31.2621 18.5034H39.6255ZM125.098 20.5461L126.586 18.5034L134.95 18.5036L127.46 8.54219C126.293 10.0957 125.176 11.5825 124.071 13.0523C122.218 15.5199 120.4 17.9397 118.439 20.5474L115.962 20.5468C118.002 17.8342 120.274 14.8085 122.498 11.8469C123.964 9.89464 125.409 7.97018 126.753 6.18151L128.167 6.18106L137.726 18.8944L138.85 20.5461H125.098Z"
          fill="white"/>
</svg>
