<svg xmlns="http://www.w3.org/2000/svg"
     fill="currentColor"
     width="100%"
     height="100%"
     viewBox="0 0 80 80"
     >
     <path d="M27.09 39.753h-2.072c-.805 0-1.417-.107-1.846-.322-.88-.43-1.17-1.342-1.17-2.791v-.494H20.82v-2.502c.462-.032.709-.075.967-.171.343-.14.526-.312.665-.666.13-.333.172-.687.204-1.095h2.459v1.76H27.1v2.674h-1.986v.311c0 .537.118.698.784.698h1.191v2.598zM30.655 39.753h-3.317v-8.267h3.296v2.996a2.466 2.466 0 0 1 2.126-1.149c1.653 0 2.512.923 2.512 2.663v3.757h-3.307v-2.716c0-.676-.14-.913-.655-.913-.494 0-.655.226-.655.988v2.641zM44.028 37.628c-.386 1.567-1.686 2.33-4.391 2.33-1.664 0-2.727-.344-3.36-.924-.634-.59-.87-1.353-.87-2.212 0-.687.16-1.288.472-1.825.634-1.052 1.933-1.664 3.994-1.664 1.535 0 2.577.354 3.242.977.666.623.945 1.428.945 2.351v.559h-5.357c.118.418.44.633 1.106.633.461 0 .612-.086.708-.225h3.511zm-4.273-2.126c-.548 0-.859.182-.998.515h1.986c-.118-.386-.408-.515-.988-.515zM21.142 48.1v-7.731h4.263c.934 0 1.728.14 2.405.44 1.385.58 2.147 1.718 2.147 3.425 0 .848-.183 1.557-.569 2.137-.762 1.148-2.147 1.728-3.962 1.728h-4.284zm3.35-4.961v2.147h.72c.934 0 1.256-.397 1.256-1.063 0-.762-.322-1.084-1.256-1.084h-.72zM38.576 45.973c-.387 1.568-1.686 2.33-4.392 2.33-1.664 0-2.727-.343-3.36-.923-.634-.59-.87-1.353-.87-2.212 0-.687.161-1.288.473-1.825.633-1.052 1.932-1.664 3.994-1.664 1.535 0 2.576.354 3.242.977.666.623.945 1.428.945 2.351v.558H33.25c.118.42.44.634 1.106.634.462 0 .612-.086.709-.226h3.51zm-4.273-2.125c-.548 0-.86.182-.999.515h1.986c-.118-.386-.408-.515-.987-.515z" fill="#5733FF"/><path d="M43.685 47.069c-.451.751-1.364 1.234-2.835 1.234-1.653 0-2.372-.601-2.372-1.728 0-.763.322-1.3.987-1.61.204-.097.408-.183.623-.237.419-.129.956-.204 1.729-.29a65.86 65.86 0 0 0 1.202-.129c.537-.075.666-.15.666-.29 0-.16-.097-.246-.634-.246-.676 0-.966.203-.966.429h-3.403c.182-1.707 1.75-2.523 4.294-2.523 2.76 0 3.951.891 3.951 2.888v3.532h-2.91l-.332-1.03zm-1.374-.666c.214 0 .43-.043.644-.129.419-.172.73-.472.73-.816v-.096c-.183.139-.483.225-.934.343-.419.086-.57.15-.655.204-.086.054-.15.129-.15.247 0 .129.107.247.365.247zM47.27 48.1v-8.268h3.34V48.1h-3.34z" fill="#5733FF"/><path d="M54.697 48.303c-.73 0-1.395-.064-1.986-.204-1.191-.257-2.007-.88-2.222-2.061h3.393c.16.311.504.376 1.213.376.461 0 .601-.119.601-.215 0-.161-.343-.236-1.578-.311-.838-.054-1.503-.14-1.997-.269-.988-.258-1.396-.751-1.396-1.632 0-1.492 1.288-2.308 3.8-2.308 2.47 0 3.748.655 4.295 2.19h-3.253c-.16-.29-.58-.376-1.138-.376-.494 0-.612.086-.612.215 0 .183.676.269 1.525.311.859.043 1.535.14 2.04.28 1.02.268 1.438.773 1.438 1.61 0 .472-.14.891-.397 1.256-.537.72-1.696 1.138-3.726 1.138z"
     />
     </svg>