<svg xmlns="http://www.w3.org/2000/svg"
     fill="currentColor"
     width="100%"
     height="100%"
     viewBox="0 0 80 80"
     >
     <path fill-rule="evenodd" 
           clip-rule="evenodd" 
           d="M42.464 40.02a.77.77 0 0 1 .974-.24.77.77 0 1 1 .076.045.77.77 0 0 1-.014 1.293c.724.025 1.454-.014 2.076-.13.677-.126 1.133-.328 1.356-.552.261-.263.633-.716 1.082-1.262l.054-.066c.461-.561.985-1.197 1.494-1.738.493-.525 1.032-1.03 1.528-1.263.249-.118.588-.216.934-.093.37.131.57.448.673.77.357 1.116.073 2.108-.29 2.937-.126.286-.27.574-.405.84l-.157.315c-.177.361-.313.673-.386.964-.05.203-.081.504-.12.889l-.01.1c-.041.401-.093.873-.2 1.266a2.16 2.16 0 0 1-.245.59 1.08 1.08 0 0 1-.573.465c-.277.09-.554.044-.797-.064-.237-.105-.473-.28-.71-.503-.76-.713-1.02-1.525-1.143-1.91-.03-.092-.051-.16-.07-.196a.23.23 0 0 0-.026-.043.336.336 0 0 0-.107-.02c-.222-.014-.64.045-1.445.27-1.54.432-2.856.326-3.766.2a33.102 33.102 0 0 0 3.854 2.94c.424.28.8.54 1.145.78 2.021 1.4 2.975 2.061 6.061 1.243-2.437 3.705-5.086 4.88-8.501 2.632-2.295-1.51-3.333-4.352-4.25-6.904h-.239v1.414h-1.61v2.435h-1.612v3.685h-1.61v2.434h-1.582V56H30.365v-2.457h1.927V51.11h1.581v-3.685h1.611v-2.435h1.611v-1.843l-8.85.09-1.22.012L27 40.805l1.22-.012 8.958-.09c.43-.1.024-.3-.278-.4-4.468-1.49-6.746-2.98-7.71-4.82-.724-1.383-1.402-8.152 3.417-7.1 4.537.99 2.317 5.71 1.75 6.917-.036.075-.065.136-.085.182-.35.79-.35 1.49 1.314 2.805 1.244.982 1.973.665 2.23.334L36.052 24h7.227l-1.857 15a.769.769 0 0 1 .687.004.77.77 0 1 1 .076.044.77.77 0 0 1 .273.968l.006.004zm5.132-10.287a.77.77 0 0 0 .903-1.229.77.77 0 1 0-.357-.196.77.77 0 0 0-.586 1.401.77.77 0 0 0-.79 1.32.77.77 0 1 0 .07.04.769.769 0 0 0 .76-1.336zm2.36.488a.77.77 0 0 1-1.032.288.77.77 0 0 1-.759 1.337.77.77 0 1 1-.07-.04.77.77 0 0 1 .79-1.32.77.77 0 0 1 .586-1.401.77.77 0 1 1 .357.196.77.77 0 0 1 .129.94zm-4.695 3.493a.769.769 0 1 0-.02-.012.77.77 0 1 0 .02.012zm2.37.494a.77.77 0 0 1-1.041.283.77.77 0 1 1-.02-.012.77.77 0 1 1 1.06-.271zm-3.93 2.16a.77.77 0 1 0 .775-1.329.77.77 0 0 0-.775 1.328zm2.38.5a.77.77 0 1 1-1.328-.776.77.77 0 0 1 1.328.775zm-3.158.83a.77.77 0 1 0 .775-1.33.77.77 0 0 0-.775 1.33zm2.38.499a.77.77 0 1 1-1.328-.775.77.77 0 0 1 1.329.775zm2.261 4.236-.001-.001.001.001z"
           />
           </svg>