<svg xmlns="http://www.w3.org/2000/svg"
     fill="currentColor"
     width="100%"
     height="100%"
     viewBox="0 0 80 80" 
     >
     <path d="M40.667 39.237H39.6a7.641 7.641 0 0 1-6.08-2.992L28 29h5.333l9.31 9.165a.52.52 0 0
      1 .157.371v1.928a.52.52 0 0 1-.156.371L33.334 50H28l5.52-7.245a7.641 7.641 0 0 1 
      6.08-2.992h1.067v-.526z"/><path d="M47.2 39.237v.526h-.69a4.01 4.01 0 0 0-3.513 2.053L38.467 
      50h3.666l6.57-9.183a.52.52 0 0 0 .097-.302v-2.03a.52.52 0 0 0-.097-.302L42.133 29h-3.666l4.53 
      8.184a4.01 4.01 0 0 0 3.512 2.053h.691z"/><path d="M50.933 39.237v.526a1.65 1.65 0 0 0-1.617 
      1.282L47.333 50H49.2l2.707-9.009c.062-.205.093-.419.093-.633v-1.716c0-.214-.031-.428-.093-.633L49.2 
      29h-1.867l1.983 8.955a1.65 1.65 0 0 0 1.617 1.282z" 
     />
     </svg>